<?xml version="1.0" encoding="UTF-8"?>
<svg xmlns="http://www.w3.org/2000/svg" xmlns:xlink="http://www.w3.org/1999/xlink" width="150pt" height="150pt" viewBox="0 0 150 150" version="1.1">
<g id="surface4507396">
<path style=" stroke:none;fill-rule:nonzero;fill:rgb(100%,89.019608%,29.411766%);fill-opacity:1;" d="M 9 24 C 6.835938 23.96875 4.824219 25.105469 3.734375 26.976562 C 2.640625 28.84375 2.640625 31.15625 3.734375 33.023438 C 4.824219 34.894531 6.835938 36.03125 9 36 L 141 36 C 143.164062 36.03125 145.175781 34.894531 146.265625 33.023438 C 147.359375 31.15625 147.359375 28.84375 146.265625 26.976562 C 145.175781 25.105469 143.164062 23.96875 141 24 Z M 9 69 C 6.835938 68.96875 4.824219 70.105469 3.734375 71.976562 C 2.640625 73.84375 2.640625 76.15625 3.734375 78.023438 C 4.824219 79.894531 6.835938 81.03125 9 81 L 141 81 C 143.164062 81.03125 145.175781 79.894531 146.265625 78.023438 C 147.359375 76.15625 147.359375 73.84375 146.265625 71.976562 C 145.175781 70.105469 143.164062 68.96875 141 69 Z M 9 114 C 6.835938 113.96875 4.824219 115.105469 3.734375 116.976562 C 2.640625 118.84375 2.640625 121.15625 3.734375 123.023438 C 4.824219 124.894531 6.835938 126.03125 9 126 L 141 126 C 143.164062 126.03125 145.175781 124.894531 146.265625 123.023438 C 147.359375 121.15625 147.359375 118.84375 146.265625 116.976562 C 145.175781 115.105469 143.164062 113.96875 141 114 Z M 9 114 "/>
</g>
</svg>
