<?xml version="1.0" standalone="no"?>
<!DOCTYPE svg PUBLIC "-//W3C//DTD SVG 1.1//EN" "http://www.w3.org/Graphics/SVG/1.1/DTD/svg11.dtd" >
<svg xmlns="http://www.w3.org/2000/svg" xmlns:xlink="http://www.w3.org/1999/xlink" version="1.1">
<metadata>
Created by FontForge 20190801 at Fri May 11 13:26:57 2018
 By Jimmy Wärting
All Rights Reserved, c Charles Daoud
</metadata>
<defs>
<font id="NTF-Grand-Regular" horiz-adv-x="0" >
  <font-face 
    font-family="NTF-Grand"
    font-weight="400"
    font-stretch="normal"
    units-per-em="1000"
    panose-1="0 0 5 0 0 0 0 0 0 0"
    ascent="800"
    descent="-200"
    x-height="560"
    cap-height="700"
    bbox="-250 -200 720 930"
    underline-thickness="50"
    underline-position="-100"
    stemh="76"
    stemv="80"
    unicode-range="U+0020-FB02"
  />
<missing-glyph horiz-adv-x="442" 
d="M50 -200v1000h342v-1000h-342zM126 -130h190v860h-190v-860z" />
    <glyph glyph-name="f_f" unicode="ff" horiz-adv-x="387" 
d="M10 490v70h36v70c0 58 32 90 90 90h52v-70h-50c-10 0 -16 -6 -16 -16v-74h117v70c0 58 32 90 90 90h52v-70h-50c-10 0 -16 -6 -16 -16v-74h66v-70h-66v-490h-76v490h-117v-490h-76v490h-36z" />
    <glyph glyph-name="f_f_i" unicode="ffi" horiz-adv-x="543" 
d="M10 490v70h36v70c0 58 32 90 90 90h52v-70h-50c-10 0 -16 -6 -16 -16v-74h117v70c0 58 32 90 90 90h52v-70h-50c-10 0 -16 -6 -16 -16v-74h66v-70h-66v-490h-76v490h-117v-490h-76v490h-36zM427 640v80h76v-80h-76zM427 0v560h76v-560h-76z" />
    <glyph glyph-name="f_f_l" unicode="ffl" horiz-adv-x="543" 
d="M10 490v70h36v70c0 58 32 90 90 90h52v-70h-50c-10 0 -16 -6 -16 -16v-74h117v70c0 58 32 90 90 90h52v-70h-50c-10 0 -16 -6 -16 -16v-74h66v-70h-66v-490h-76v490h-117v-490h-76v490h-36zM427 0v720h76v-720h-76z" />
    <glyph glyph-name="fi" unicode="fi" horiz-adv-x="350" 
d="M10 490v70h36v70c0 58 32 90 90 90h52v-70h-50c-10 0 -16 -6 -16 -16v-74h66v-70h-66v-490h-76v490h-36zM234 640v80h76v-80h-76zM234 0v560h76v-560h-76z" />
    <glyph glyph-name="fl" unicode="fl" horiz-adv-x="350" 
d="M10 490v70h36v70c0 58 32 90 90 90h52v-70h-50c-10 0 -16 -6 -16 -16v-74h66v-70h-66v-490h-76v490h-36zM234 0v720h76v-720h-76z" />
    <glyph glyph-name=".notdef" horiz-adv-x="442" 
d="M50 -200v1000h342v-1000h-342zM126 -130h190v860h-190v-860z" />
    <glyph glyph-name="A" unicode="A" horiz-adv-x="374" 
d="M17 0l105 700h130l105 -700h-80l-23 160h-134l-23 -160h-80zM131 236h112l-56 388z" />
    <glyph glyph-name="Aacute" unicode="&#xc1;" horiz-adv-x="374" 
d="M155 774l54 110h82l-72 -110h-64zM17 0l105 700h130l105 -700h-80l-23 160h-134l-23 -160h-80zM131 236h112l-56 388z" />
    <glyph glyph-name="Abreve" unicode="&#x102;" horiz-adv-x="374" 
d="M187 770c-55 0 -100 45 -100 100h50c0 -28 22 -50 50 -50s50 22 50 50h50c0 -55 -45 -100 -100 -100zM17 0l105 700h130l105 -700h-80l-23 160h-134l-23 -160h-80zM131 236h112l-56 388z" />
    <glyph glyph-name="uni01CD" unicode="&#x1cd;" horiz-adv-x="374" 
d="M91 884h54l42 -64l42 64h54l-54 -110h-84zM17 0l105 700h130l105 -700h-80l-23 160h-134l-23 -160h-80zM131 236h112l-56 388z" />
    <glyph glyph-name="Acircumflex" unicode="&#xc2;" horiz-adv-x="374" 
d="M91 774l54 110h84l54 -110h-54l-42 64l-42 -64h-54zM17 0l105 700h130l105 -700h-80l-23 160h-134l-23 -160h-80zM131 236h112l-56 388z" />
    <glyph glyph-name="Adieresis" unicode="&#xc4;" horiz-adv-x="374" 
d="M93 774v80h70v-80h-70zM211 774v80h70v-80h-70zM17 0l105 700h130l105 -700h-80l-23 160h-134l-23 -160h-80zM131 236h112l-56 388z" />
    <glyph glyph-name="Agrave" unicode="&#xc0;" horiz-adv-x="374" 
d="M155 774l-72 110h82l54 -110h-64zM17 0l105 700h130l105 -700h-80l-23 160h-134l-23 -160h-80zM131 236h112l-56 388z" />
    <glyph glyph-name="Amacron" unicode="&#x100;" horiz-adv-x="374" 
d="M104 774v60h166v-60h-166zM17 0l105 700h130l105 -700h-80l-23 160h-134l-23 -160h-80zM131 236h112l-56 388z" />
    <glyph glyph-name="Aogonek" unicode="&#x104;" horiz-adv-x="374" 
d="M357 0l-53 -105h53v-60h-54c-60 0 -70 48 -50 89l38 76h-14l-23 160h-134l-23 -160h-80l105 700h130zM131 236h112l-56 388z" />
    <glyph glyph-name="Aring" unicode="&#xc5;" horiz-adv-x="374" 
d="M187 770c-44 0 -80 36 -80 80s36 80 80 80s80 -36 80 -80s-36 -80 -80 -80zM187 810c22 0 40 18 40 40s-18 40 -40 40s-40 -18 -40 -40s18 -40 40 -40zM17 0l105 700h130l105 -700h-80l-23 160h-134l-23 -160h-80zM131 236h112l-56 388z" />
    <glyph glyph-name="Atilde" unicode="&#xc3;" horiz-adv-x="374" 
d="M232 765c-41 0 -65 30 -96 30c-18 0 -24 -16 -24 -25h-30c0 14 1 85 60 85c41 0 65 -30 96 -30c18 0 24 16 24 25h30c0 -14 -1 -85 -60 -85zM17 0l105 700h130l105 -700h-80l-23 160h-134l-23 -160h-80zM131 236h112l-56 388z" />
    <glyph glyph-name="AE" unicode="&#xc6;" horiz-adv-x="505" 
d="M17 0l115 700h346v-76h-162v-230h156v-76h-156v-242h166v-76h-246v160h-114l-26 -160h-79zM134 236h102v388h-40z" />
    <glyph glyph-name="B" unicode="B" horiz-adv-x="381" 
d="M45 0v700h204c58 0 90 -32 90 -90v-176c0 -36 -14 -60 -53 -75c40 -14 55 -40 55 -77v-192c0 -58 -32 -90 -90 -90h-206zM125 396h116c13 0 20 7 20 20v188c0 13 -7 20 -20 20h-116v-228zM125 76h116c13 0 20 7 20 20v204c0 13 -7 20 -20 20h-116v-244z" />
    <glyph glyph-name="C" unicode="C" horiz-adv-x="377" 
d="M133 -4c-58 0 -90 32 -90 90v528c0 58 32 90 90 90h116c58 0 90 -32 90 -90v-174h-80v168c0 13 -7 20 -20 20h-96c-13 0 -20 -7 -20 -20v-516c0 -13 7 -20 20 -20h96c13 0 20 7 20 20v168h80v-174c0 -58 -32 -90 -90 -90h-116z" />
    <glyph glyph-name="Cacute" unicode="&#x106;" horiz-adv-x="377" 
d="M161 774l54 110h82l-72 -110h-64zM133 -4c-58 0 -90 32 -90 90v528c0 58 32 90 90 90h116c58 0 90 -32 90 -90v-174h-80v168c0 13 -7 20 -20 20h-96c-13 0 -20 -7 -20 -20v-516c0 -13 7 -20 20 -20h96c13 0 20 7 20 20v168h80v-174c0 -58 -32 -90 -90 -90h-116z" />
    <glyph glyph-name="Ccaron" unicode="&#x10c;" horiz-adv-x="377" 
d="M89 884h54l42 -64l42 64h54l-54 -110h-84zM133 -4c-58 0 -90 32 -90 90v528c0 58 32 90 90 90h116c58 0 90 -32 90 -90v-174h-80v168c0 13 -7 20 -20 20h-96c-13 0 -20 -7 -20 -20v-516c0 -13 7 -20 20 -20h96c13 0 20 7 20 20v168h80v-174c0 -58 -32 -90 -90 -90h-116z
" />
    <glyph glyph-name="Ccedilla" unicode="&#xc7;" horiz-adv-x="377" 
d="M339 440h-80v168c0 13 -7 20 -20 20h-96c-13 0 -20 -7 -20 -20v-516c0 -13 7 -20 20 -20h96c13 0 20 7 20 20v168h80v-174c0 -58 -32 -90 -90 -90h-33l-23 -106h-82l40 106h-18c-58 0 -90 32 -90 90v528c0 58 32 90 90 90h116c58 0 90 -32 90 -90v-174z" />
    <glyph glyph-name="Ccircumflex" unicode="&#x108;" horiz-adv-x="377" 
d="M89 774l54 110h84l54 -110h-54l-42 64l-42 -64h-54zM133 -4c-58 0 -90 32 -90 90v528c0 58 32 90 90 90h116c58 0 90 -32 90 -90v-174h-80v168c0 13 -7 20 -20 20h-96c-13 0 -20 -7 -20 -20v-516c0 -13 7 -20 20 -20h96c13 0 20 7 20 20v168h80v-174
c0 -58 -32 -90 -90 -90h-116z" />
    <glyph glyph-name="Cdotaccent" unicode="&#x10a;" horiz-adv-x="377" 
d="M147 774v80h76v-80h-76zM133 -4c-58 0 -90 32 -90 90v528c0 58 32 90 90 90h116c58 0 90 -32 90 -90v-174h-80v168c0 13 -7 20 -20 20h-96c-13 0 -20 -7 -20 -20v-516c0 -13 7 -20 20 -20h96c13 0 20 7 20 20v168h80v-174c0 -58 -32 -90 -90 -90h-116z" />
    <glyph glyph-name="D" unicode="D" horiz-adv-x="384" 
d="M45 0v700h206c58 0 90 -32 90 -90v-520c0 -58 -32 -90 -90 -90h-206zM125 76h116c13 0 20 7 20 20v508c0 13 -7 20 -20 20h-116v-548z" />
    <glyph glyph-name="Eth" unicode="&#xd0;" horiz-adv-x="399" 
d="M10 312v76h50v312h206c58 0 90 -32 90 -90v-520c0 -58 -32 -90 -90 -90h-206v312h-50zM140 76h116c13 0 20 7 20 20v508c0 13 -7 20 -20 20h-116v-236h70v-76h-70v-236z" />
    <glyph glyph-name="Dcaron" unicode="&#x10e;" horiz-adv-x="384" 
d="M72 884h54l42 -64l42 64h54l-54 -110h-84zM45 0v700h206c58 0 90 -32 90 -90v-520c0 -58 -32 -90 -90 -90h-206zM125 76h116c13 0 20 7 20 20v508c0 13 -7 20 -20 20h-116v-548z" />
    <glyph glyph-name="Dcroat" unicode="&#x110;" horiz-adv-x="399" 
d="M10 312v76h50v312h206c58 0 90 -32 90 -90v-520c0 -58 -32 -90 -90 -90h-206v312h-50zM140 76h116c13 0 20 7 20 20v508c0 13 -7 20 -20 20h-116v-236h70v-76h-70v-236z" />
    <glyph glyph-name="E" unicode="E" horiz-adv-x="314" 
d="M45 0v700h242v-76h-162v-230h156v-76h-156v-242h166v-76h-246z" />
    <glyph glyph-name="Eacute" unicode="&#xc9;" horiz-adv-x="314" 
d="M128 774l54 110h82l-72 -110h-64zM45 0v700h242v-76h-162v-230h156v-76h-156v-242h166v-76h-246z" />
    <glyph glyph-name="Ecaron" unicode="&#x11a;" horiz-adv-x="314" 
d="M69 884h54l42 -64l42 64h54l-54 -110h-84zM45 0v700h242v-76h-162v-230h156v-76h-156v-242h166v-76h-246z" />
    <glyph glyph-name="Ecircumflex" unicode="&#xca;" horiz-adv-x="314" 
d="M70 774l54 110h84l54 -110h-54l-42 64l-42 -64h-54zM45 0v700h242v-76h-162v-230h156v-76h-156v-242h166v-76h-246z" />
    <glyph glyph-name="Edieresis" unicode="&#xcb;" horiz-adv-x="314" 
d="M72 774v80h70v-80h-70zM190 774v80h70v-80h-70zM45 0v700h242v-76h-162v-230h156v-76h-156v-242h166v-76h-246z" />
    <glyph glyph-name="Edotaccent" unicode="&#x116;" horiz-adv-x="314" 
d="M124 774v80h76v-80h-76zM45 0v700h242v-76h-162v-230h156v-76h-156v-242h166v-76h-246z" />
    <glyph glyph-name="uni1EB8" unicode="&#x1eb8;" horiz-adv-x="314" 
d="M45 0v700h242v-76h-162v-230h156v-76h-156v-242h166v-76h-246zM133 -139v80h76v-80h-76z" />
    <glyph glyph-name="Egrave" unicode="&#xc8;" horiz-adv-x="314" 
d="M133 774l-72 110h82l54 -110h-64zM45 0v700h242v-76h-162v-230h156v-76h-156v-242h166v-76h-246z" />
    <glyph glyph-name="Emacron" unicode="&#x112;" horiz-adv-x="314" 
d="M79 774v60h166v-60h-166zM45 0v700h242v-76h-162v-230h156v-76h-156v-242h166v-76h-246z" />
    <glyph glyph-name="Eogonek" unicode="&#x118;" horiz-adv-x="314" 
d="M291 76v-76l-53 -105h53v-60h-54c-60 0 -70 48 -50 89l38 76h-180v700h242v-76h-162v-230h156v-76h-156v-242h166z" />
    <glyph glyph-name="uni1EBC" unicode="&#x1ebc;" horiz-adv-x="314" 
d="M209 769c-41 0 -65 30 -96 30c-18 0 -24 -16 -24 -25h-30c0 14 1 85 60 85c41 0 65 -30 96 -30c18 0 24 16 24 25h30c0 -14 -1 -85 -60 -85zM45 0v700h242v-76h-162v-230h156v-76h-156v-242h166v-76h-246z" />
    <glyph glyph-name="F" unicode="F" horiz-adv-x="307" 
d="M45 0v700h242v-76h-162v-230h156v-76h-156v-318h-80z" />
    <glyph glyph-name="G" unicode="G" horiz-adv-x="381" 
d="M133 -4c-58 0 -90 32 -90 90v528c0 58 32 90 90 90h116c58 0 90 -32 90 -90v-174h-80v168c0 13 -7 20 -20 20h-96c-13 0 -20 -7 -20 -20v-516c0 -13 7 -20 20 -20h116v212h-70v76h150v-360h-80v46l-40 -50h-86z" />
    <glyph glyph-name="Gbreve" unicode="&#x11e;" horiz-adv-x="381" 
d="M190 770c-55 0 -100 45 -100 100h50c0 -28 22 -50 50 -50s50 22 50 50h50c0 -55 -45 -100 -100 -100zM133 -4c-58 0 -90 32 -90 90v528c0 58 32 90 90 90h116c58 0 90 -32 90 -90v-174h-80v168c0 13 -7 20 -20 20h-96c-13 0 -20 -7 -20 -20v-516c0 -13 7 -20 20 -20h116
v212h-70v76h150v-360h-80v46l-40 -50h-86z" />
    <glyph glyph-name="Gcaron" unicode="&#x1e6;" horiz-adv-x="381" 
d="M94 884h54l42 -64l42 64h54l-54 -110h-84zM133 -4c-58 0 -90 32 -90 90v528c0 58 32 90 90 90h116c58 0 90 -32 90 -90v-174h-80v168c0 13 -7 20 -20 20h-96c-13 0 -20 -7 -20 -20v-516c0 -13 7 -20 20 -20h116v212h-70v76h150v-360h-80v46l-40 -50h-86z" />
    <glyph glyph-name="Gcircumflex" unicode="&#x11c;" horiz-adv-x="381" 
d="M94 774l54 110h84l54 -110h-54l-42 64l-42 -64h-54zM133 -4c-58 0 -90 32 -90 90v528c0 58 32 90 90 90h116c58 0 90 -32 90 -90v-174h-80v168c0 13 -7 20 -20 20h-96c-13 0 -20 -7 -20 -20v-516c0 -13 7 -20 20 -20h116v212h-70v76h150v-360h-80v46l-40 -50h-86z" />
    <glyph glyph-name="Gcommaaccent" unicode="&#x122;" horiz-adv-x="381" 
d="M133 -4c-58 0 -90 32 -90 90v528c0 58 32 90 90 90h116c58 0 90 -32 90 -90v-174h-80v168c0 13 -7 20 -20 20h-96c-13 0 -20 -7 -20 -20v-516c0 -13 7 -20 20 -20h116v212h-70v76h150v-360h-80v46l-40 -50h-86zM157 -194v30c19 0 31 14 31 37h-31v67h66v-59
c0 -43 -20 -75 -66 -75z" />
    <glyph glyph-name="Gdotaccent" unicode="&#x120;" horiz-adv-x="381" 
d="M152 774v80h76v-80h-76zM133 -4c-58 0 -90 32 -90 90v528c0 58 32 90 90 90h116c58 0 90 -32 90 -90v-174h-80v168c0 13 -7 20 -20 20h-96c-13 0 -20 -7 -20 -20v-516c0 -13 7 -20 20 -20h116v212h-70v76h150v-360h-80v46l-40 -50h-86z" />
    <glyph glyph-name="H" unicode="H" horiz-adv-x="386" 
d="M45 0v700h80v-314h136v314h80v-700h-80v310h-136v-310h-80z" />
    <glyph glyph-name="Hbar" unicode="&#x126;" horiz-adv-x="396" 
d="M8 512v60h42v128h80v-128h136v128h80v-128h42v-60h-42v-512h-80v310h-136v-310h-80v512h-42zM130 386h136v126h-136v-126z" />
    <glyph glyph-name="Hcircumflex" unicode="&#x124;" horiz-adv-x="386" 
d="M97 774l54 110h84l54 -110h-54l-42 64l-42 -64h-54zM45 0v700h80v-314h136v314h80v-700h-80v310h-136v-310h-80z" />
    <glyph glyph-name="I" unicode="I" horiz-adv-x="170" 
d="M45 0v700h80v-700h-80z" />
    <glyph glyph-name="IJ" unicode="&#x132;" horiz-adv-x="430" 
d="M45 0v700h80v-700h-80zM190 -4v76h96c13 0 20 7 20 20v532h-116v76h196v-614c0 -58 -32 -90 -90 -90h-106z" />
    <glyph glyph-name="Iacute" unicode="&#xcd;" horiz-adv-x="170" 
d="M53 774l54 110h82l-72 -110h-64zM45 0v700h80v-700h-80z" />
    <glyph glyph-name="uni01CF" unicode="&#x1cf;" horiz-adv-x="170" 
d="M-11 884h54l42 -64l42 64h54l-54 -110h-84zM45 0v700h80v-700h-80z" />
    <glyph glyph-name="Icircumflex" unicode="&#xce;" horiz-adv-x="170" 
d="M-11 774l54 110h84l54 -110h-54l-42 64l-42 -64h-54zM45 0v700h80v-700h-80z" />
    <glyph glyph-name="Idieresis" unicode="&#xcf;" horiz-adv-x="170" 
d="M-9 774v80h70v-80h-70zM109 774v80h70v-80h-70zM45 0v700h80v-700h-80z" />
    <glyph glyph-name="Idotaccent" unicode="&#x130;" horiz-adv-x="170" 
d="M47 774v80h76v-80h-76zM45 0v700h80v-700h-80z" />
    <glyph glyph-name="uni1ECA" unicode="&#x1eca;" horiz-adv-x="170" 
d="M45 0v700h80v-700h-80zM47 -139v80h76v-80h-76z" />
    <glyph glyph-name="Igrave" unicode="&#xcc;" horiz-adv-x="170" 
d="M53 774l-72 110h82l54 -110h-64zM45 0v700h80v-700h-80z" />
    <glyph glyph-name="Imacron" unicode="&#x12a;" horiz-adv-x="170" 
d="M2 774v60h166v-60h-166zM45 0v700h80v-700h-80z" />
    <glyph glyph-name="Iogonek" unicode="&#x12e;" horiz-adv-x="170" 
d="M125 700v-700l-53 -105h53v-60h-54c-60 0 -70 48 -50 89l38 76h-14v700h80z" />
    <glyph glyph-name="Itilde" unicode="&#x128;" horiz-adv-x="170" 
d="M130 765c-41 0 -65 30 -96 30c-18 0 -24 -16 -24 -25h-30c0 14 1 85 60 85c41 0 65 -30 96 -30c18 0 24 16 24 25h30c0 -14 -1 -85 -60 -85zM45 0v700h80v-700h-80z" />
    <glyph glyph-name="J" unicode="J" horiz-adv-x="260" 
d="M20 -4v76h96c13 0 20 7 20 20v532h-116v76h196v-614c0 -58 -32 -90 -90 -90h-106z" />
    <glyph glyph-name="uni00A40301" horiz-adv-x="260" 
d="M104 774l54 110h82l-72 -110h-64zM20 -4v76h96c13 0 20 7 20 20v532h-116v76h196v-614c0 -58 -32 -90 -90 -90h-106z" />
    <glyph glyph-name="Jcircumflex" unicode="&#x134;" horiz-adv-x="260" 
d="M40 774l54 110h84l54 -110h-54l-42 64l-42 -64h-54zM20 -4v76h96c13 0 20 7 20 20v532h-116v76h196v-614c0 -58 -32 -90 -90 -90h-106z" />
    <glyph glyph-name="K" unicode="K" horiz-adv-x="360" 
d="M45 0v700h80v-343l147 343h80l-150 -350l150 -350h-80l-147 343v-343h-80z" />
    <glyph glyph-name="Kcommaaccent" unicode="&#x136;" horiz-adv-x="360" 
d="M45 0v700h80v-343l147 343h80l-150 -350l150 -350h-80l-147 343v-343h-80zM147 -194v30c19 0 31 14 31 37h-31v67h66v-59c0 -43 -20 -75 -66 -75z" />
    <glyph glyph-name="L" unicode="L" horiz-adv-x="302" 
d="M45 0v700h80v-624h162v-76h-242z" />
    <glyph glyph-name="Lacute" unicode="&#x139;" horiz-adv-x="302" 
d="M61 774l54 110h82l-72 -110h-64zM45 0v700h80v-624h162v-76h-242z" />
    <glyph glyph-name="Lcaron" unicode="&#x13d;" horiz-adv-x="302" 
d="M45 0v700h80v-624h162v-76h-242zM165 560v140h80l-30 -140h-50z" />
    <glyph glyph-name="Lcommaaccent" unicode="&#x13b;" horiz-adv-x="302" 
d="M45 0v700h80v-624h162v-76h-242zM124 -194v30c19 0 31 14 31 37h-31v67h66v-59c0 -43 -20 -75 -66 -75z" />
    <glyph glyph-name="Ldot" unicode="&#x13f;" horiz-adv-x="302" 
d="M45 0v700h80v-624h162v-76h-242zM205 300v110h78v-110h-78z" />
    <glyph glyph-name="Lslash" unicode="&#x141;" horiz-adv-x="327" 
d="M10 260v76l60 29v335h80v-297l90 43v-76l-90 -43v-251h162v-76h-242v289z" />
    <glyph glyph-name="M" unicode="M" horiz-adv-x="532" 
d="M45 0v700h132l89 -599l88 599h133v-700h-80v573l-90 -573h-102l-90 573v-573h-80z" />
    <glyph glyph-name="N" unicode="N" horiz-adv-x="400" 
d="M45 0v700h80l150 -354v354h80v-700h-80v162l-150 354v-516h-80z" />
    <glyph glyph-name="Nacute" unicode="&#x143;" horiz-adv-x="400" 
d="M168 774l54 110h82l-72 -110h-64zM45 0v700h80l150 -354v354h80v-700h-80v162l-150 354v-516h-80z" />
    <glyph glyph-name="Ncaron" unicode="&#x147;" horiz-adv-x="400" 
d="M104 884h54l42 -64l42 64h54l-54 -110h-84zM45 0v700h80l150 -354v354h80v-700h-80v162l-150 354v-516h-80z" />
    <glyph glyph-name="Ncommaaccent" unicode="&#x145;" horiz-adv-x="400" 
d="M45 0v700h80l150 -354v354h80v-700h-80v162l-150 354v-516h-80zM167 -194v30c19 0 31 14 31 37h-31v67h66v-59c0 -43 -20 -75 -66 -75z" />
    <glyph glyph-name="Eng" unicode="&#x14a;" horiz-adv-x="399" 
d="M45 0v700h80l150 -354v354h80v-746c0 -78 -42 -120 -120 -120h-76v76h76c26 0 40 14 40 40v212l-150 354v-516h-80z" />
    <glyph glyph-name="Ntilde" unicode="&#xd1;" horiz-adv-x="400" 
d="M245 765c-41 0 -65 30 -96 30c-18 0 -24 -16 -24 -25h-30c0 14 1 85 60 85c41 0 65 -30 96 -30c18 0 24 16 24 25h30c0 -14 -1 -85 -60 -85zM45 0v700h80l150 -354v354h80v-700h-80v162l-150 354v-516h-80z" />
    <glyph glyph-name="O" unicode="O" horiz-adv-x="384" 
d="M133 -4c-58 0 -90 32 -90 90v528c0 58 32 90 90 90h118c58 0 90 -32 90 -90v-528c0 -58 -32 -90 -90 -90h-118zM143 72h98c13 0 20 7 20 20v516c0 13 -7 20 -20 20h-98c-13 0 -20 -7 -20 -20v-516c0 -13 7 -20 20 -20z" />
    <glyph glyph-name="Oacute" unicode="&#xd3;" horiz-adv-x="384" 
d="M160 774l54 110h82l-72 -110h-64zM133 -4c-58 0 -90 32 -90 90v528c0 58 32 90 90 90h118c58 0 90 -32 90 -90v-528c0 -58 -32 -90 -90 -90h-118zM143 72h98c13 0 20 7 20 20v516c0 13 -7 20 -20 20h-98c-13 0 -20 -7 -20 -20v-516c0 -13 7 -20 20 -20z" />
    <glyph glyph-name="Ocircumflex" unicode="&#xd4;" horiz-adv-x="384" 
d="M96 774l54 110h84l54 -110h-54l-42 64l-42 -64h-54zM133 -4c-58 0 -90 32 -90 90v528c0 58 32 90 90 90h118c58 0 90 -32 90 -90v-528c0 -58 -32 -90 -90 -90h-118zM143 72h98c13 0 20 7 20 20v516c0 13 -7 20 -20 20h-98c-13 0 -20 -7 -20 -20v-516c0 -13 7 -20 20 -20z
" />
    <glyph glyph-name="Odieresis" unicode="&#xd6;" horiz-adv-x="384" 
d="M98 774v80h70v-80h-70zM216 774v80h70v-80h-70zM133 -4c-58 0 -90 32 -90 90v528c0 58 32 90 90 90h118c58 0 90 -32 90 -90v-528c0 -58 -32 -90 -90 -90h-118zM143 72h98c13 0 20 7 20 20v516c0 13 -7 20 -20 20h-98c-13 0 -20 -7 -20 -20v-516c0 -13 7 -20 20 -20z" />
    <glyph glyph-name="Ograve" unicode="&#xd2;" horiz-adv-x="384" 
d="M160 774l-72 110h82l54 -110h-64zM133 -4c-58 0 -90 32 -90 90v528c0 58 32 90 90 90h118c58 0 90 -32 90 -90v-528c0 -58 -32 -90 -90 -90h-118zM143 72h98c13 0 20 7 20 20v516c0 13 -7 20 -20 20h-98c-13 0 -20 -7 -20 -20v-516c0 -13 7 -20 20 -20z" />
    <glyph glyph-name="Ohungarumlaut" unicode="&#x150;" horiz-adv-x="384" 
d="M115 774l44 110h74l-62 -110h-56zM213 774l44 110h74l-62 -110h-56zM133 -4c-58 0 -90 32 -90 90v528c0 58 32 90 90 90h118c58 0 90 -32 90 -90v-528c0 -58 -32 -90 -90 -90h-118zM143 72h98c13 0 20 7 20 20v516c0 13 -7 20 -20 20h-98c-13 0 -20 -7 -20 -20v-516
c0 -13 7 -20 20 -20z" />
    <glyph glyph-name="Omacron" unicode="&#x14c;" horiz-adv-x="384" 
d="M109 774v60h166v-60h-166zM133 -4c-58 0 -90 32 -90 90v528c0 58 32 90 90 90h118c58 0 90 -32 90 -90v-528c0 -58 -32 -90 -90 -90h-118zM143 72h98c13 0 20 7 20 20v516c0 13 -7 20 -20 20h-98c-13 0 -20 -7 -20 -20v-516c0 -13 7 -20 20 -20z" />
    <glyph glyph-name="Oslash" unicode="&#xd8;" horiz-adv-x="382" 
d="M133 -4c-58 0 -90 32 -90 90v528c0 58 32 90 90 90h116c58 0 90 -32 90 -90v-528c0 -58 -32 -90 -90 -90h-116zM123 242l136 368c-1 12 -8 18 -20 18h-96c-13 0 -20 -7 -20 -20v-366zM143 72h96c13 0 20 7 20 20v366l-136 -368c1 -12 8 -18 20 -18z" />
    <glyph glyph-name="Otilde" unicode="&#xd5;" horiz-adv-x="384" 
d="M237 765c-41 0 -65 30 -96 30c-18 0 -24 -16 -24 -25h-30c0 14 1 85 60 85c41 0 65 -30 96 -30c18 0 24 16 24 25h30c0 -14 -1 -85 -60 -85zM133 -4c-58 0 -90 32 -90 90v528c0 58 32 90 90 90h118c58 0 90 -32 90 -90v-528c0 -58 -32 -90 -90 -90h-118zM143 72h98
c13 0 20 7 20 20v516c0 13 -7 20 -20 20h-98c-13 0 -20 -7 -20 -20v-516c0 -13 7 -20 20 -20z" />
    <glyph glyph-name="OE" unicode="&#x152;" horiz-adv-x="528" 
d="M43 90v520c0 58 32 90 90 90h368v-76h-162v-230h156v-76h-156v-242h166v-76h-372c-58 0 -90 32 -90 90zM123 96c0 -13 7 -20 20 -20h116v548h-116c-13 0 -20 -7 -20 -20v-508z" />
    <glyph glyph-name="P" unicode="P" horiz-adv-x="370" 
d="M45 0v700h202c58 0 90 -32 90 -90v-246c0 -58 -32 -90 -90 -90h-122v-274h-80zM125 350h112c13 0 20 7 20 20v234c0 13 -7 20 -20 20h-112v-274z" />
    <glyph glyph-name="Thorn" unicode="&#xde;" horiz-adv-x="370" 
d="M45 0v700h80v-144h122c58 0 90 -32 90 -90v-232c0 -58 -32 -90 -90 -90h-122v-144h-80zM125 220h112c13 0 20 7 20 20v220c0 13 -7 20 -20 20h-112v-260z" />
    <glyph glyph-name="Q" unicode="Q" horiz-adv-x="382" 
d="M301 -97l-93 93h-75c-58 0 -90 32 -90 90v528c0 58 32 90 90 90h116c58 0 90 -32 90 -90v-528c0 -34 -11 -60 -33 -74l52 -52zM143 72h96c13 0 20 7 20 20v516c0 13 -7 20 -20 20h-96c-13 0 -20 -7 -20 -20v-516c0 -13 7 -20 20 -20z" />
    <glyph glyph-name="R" unicode="R" horiz-adv-x="375" 
d="M45 0v700h202c58 0 90 -32 90 -90v-230c0 -49 -23 -80 -66 -88l76 -292h-80l-75 290h-67v-290h-80zM125 366h112c13 0 20 7 20 20v218c0 13 -7 20 -20 20h-112v-258z" />
    <glyph glyph-name="Racute" unicode="&#x154;" horiz-adv-x="375" 
d="M134 774l54 110h82l-72 -110h-64zM45 0v700h202c58 0 90 -32 90 -90v-230c0 -49 -23 -80 -66 -88l76 -292h-80l-75 290h-67v-290h-80zM125 366h112c13 0 20 7 20 20v218c0 13 -7 20 -20 20h-112v-258z" />
    <glyph glyph-name="Rcaron" unicode="&#x158;" horiz-adv-x="375" 
d="M70 884h54l42 -64l42 64h54l-54 -110h-84zM45 0v700h202c58 0 90 -32 90 -90v-230c0 -49 -23 -80 -66 -88l76 -292h-80l-75 290h-67v-290h-80zM125 366h112c13 0 20 7 20 20v218c0 13 -7 20 -20 20h-112v-258z" />
    <glyph glyph-name="Rcommaaccent" unicode="&#x156;" horiz-adv-x="375" 
d="M45 0v700h202c58 0 90 -32 90 -90v-230c0 -49 -23 -80 -66 -88l76 -292h-80l-75 290h-67v-290h-80zM125 366h112c13 0 20 7 20 20v218c0 13 -7 20 -20 20h-112v-258zM153 -194v30c19 0 31 14 31 37h-31v67h66v-59c0 -43 -20 -75 -66 -75z" />
    <glyph glyph-name="S" unicode="S" horiz-adv-x="372" 
d="M128 -4c-58 0 -90 32 -90 90v174h80v-168c0 -13 7 -20 20 -20h96c13 0 20 7 20 20v155c0 10 -3 17 -12 24l-164 119c-26 19 -37 41 -37 73v151c0 58 32 90 90 90h110c58 0 90 -32 90 -90v-164h-80v158c0 13 -7 20 -20 20h-90c-13 0 -20 -7 -20 -20v-137
c0 -10 3 -17 12 -24l164 -118c26 -19 37 -41 37 -73v-170c0 -58 -32 -90 -90 -90h-116z" />
    <glyph glyph-name="Sacute" unicode="&#x15a;" horiz-adv-x="372" 
d="M155 774l54 110h82l-72 -110h-64zM128 -4c-58 0 -90 32 -90 90v174h80v-168c0 -13 7 -20 20 -20h96c13 0 20 7 20 20v155c0 10 -3 17 -12 24l-164 119c-26 19 -37 41 -37 73v151c0 58 32 90 90 90h110c58 0 90 -32 90 -90v-164h-80v158c0 13 -7 20 -20 20h-90
c-13 0 -20 -7 -20 -20v-137c0 -10 3 -17 12 -24l164 -118c26 -19 37 -41 37 -73v-170c0 -58 -32 -90 -90 -90h-116z" />
    <glyph glyph-name="Scaron" unicode="&#x160;" horiz-adv-x="372" 
d="M91 884h54l42 -64l42 64h54l-54 -110h-84zM128 -4c-58 0 -90 32 -90 90v174h80v-168c0 -13 7 -20 20 -20h96c13 0 20 7 20 20v155c0 10 -3 17 -12 24l-164 119c-26 19 -37 41 -37 73v151c0 58 32 90 90 90h110c58 0 90 -32 90 -90v-164h-80v158c0 13 -7 20 -20 20h-90
c-13 0 -20 -7 -20 -20v-137c0 -10 3 -17 12 -24l164 -118c26 -19 37 -41 37 -73v-170c0 -58 -32 -90 -90 -90h-116z" />
    <glyph glyph-name="Scedilla" unicode="&#x15e;" horiz-adv-x="372" 
d="M297 329c26 -19 37 -41 37 -73v-170c0 -58 -32 -90 -90 -90h-26l-23 -106h-82l40 106h-25c-58 0 -90 32 -90 90v174h80v-168c0 -13 7 -20 20 -20h96c13 0 20 7 20 20v155c0 10 -3 17 -12 24l-164 119c-26 19 -37 41 -37 73v151c0 58 32 90 90 90h110c58 0 90 -32 90 -90
v-164h-80v158c0 13 -7 20 -20 20h-90c-13 0 -20 -7 -20 -20v-137c0 -10 3 -17 12 -24z" />
    <glyph glyph-name="Scircumflex" unicode="&#x15c;" horiz-adv-x="372" 
d="M91 774l54 110h84l54 -110h-54l-42 64l-42 -64h-54zM128 -4c-58 0 -90 32 -90 90v174h80v-168c0 -13 7 -20 20 -20h96c13 0 20 7 20 20v155c0 10 -3 17 -12 24l-164 119c-26 19 -37 41 -37 73v151c0 58 32 90 90 90h110c58 0 90 -32 90 -90v-164h-80v158
c0 13 -7 20 -20 20h-90c-13 0 -20 -7 -20 -20v-137c0 -10 3 -17 12 -24l164 -118c26 -19 37 -41 37 -73v-170c0 -58 -32 -90 -90 -90h-116z" />
    <glyph glyph-name="Scommaaccent" unicode="&#x218;" horiz-adv-x="372" 
d="M128 -4c-58 0 -90 32 -90 90v174h80v-168c0 -13 7 -20 20 -20h96c13 0 20 7 20 20v155c0 10 -3 17 -12 24l-164 119c-26 19 -37 41 -37 73v151c0 58 32 90 90 90h110c58 0 90 -32 90 -90v-164h-80v158c0 13 -7 20 -20 20h-90c-13 0 -20 -7 -20 -20v-137
c0 -10 3 -17 12 -24l164 -118c26 -19 37 -41 37 -73v-170c0 -58 -32 -90 -90 -90h-116zM154 -194v30c19 0 31 14 31 37h-31v67h66v-59c0 -43 -20 -75 -66 -75z" />
    <glyph glyph-name="uni1E9E" unicode="&#x1e9e;" horiz-adv-x="744" 
d="M128 -4c-58 0 -90 32 -90 90v174h80v-168c0 -13 7 -20 20 -20h96c13 0 20 7 20 20v155c0 10 -3 17 -12 24l-164 119c-26 19 -37 41 -37 73v151c0 58 32 90 90 90h110c58 0 90 -32 90 -90v-164h-80v158c0 13 -7 20 -20 20h-90c-13 0 -20 -7 -20 -20v-137
c0 -10 3 -17 12 -24l164 -118c26 -19 37 -41 37 -73v-170c0 -58 -32 -90 -90 -90h-116zM500 -4c-58 0 -90 32 -90 90v174h80v-168c0 -13 7 -20 20 -20h96c13 0 20 7 20 20v155c0 10 -3 17 -12 24l-164 119c-26 19 -37 41 -37 73v151c0 58 32 90 90 90h110
c58 0 90 -32 90 -90v-164h-80v158c0 13 -7 20 -20 20h-90c-13 0 -20 -7 -20 -20v-137c0 -10 3 -17 12 -24l164 -118c26 -19 37 -41 37 -73v-170c0 -58 -32 -90 -90 -90h-116z" />
    <glyph glyph-name="uni018F" unicode="&#x18f;" horiz-adv-x="379" 
d="M40 84v303h216v223c0 13 -7 20 -20 20h-96c-13 0 -20 -7 -20 -20v-133h-80v139c0 58 32 90 90 90h116c58 0 90 -32 90 -90v-532c0 -58 -32 -90 -90 -90h-116c-58 0 -90 32 -90 90zM120 90c0 -13 7 -20 20 -20h96c13 0 20 7 20 20v221h-136v-221z" />
    <glyph glyph-name="T" unicode="T" horiz-adv-x="316" 
d="M15 624v76h286v-76h-103v-624h-80v624h-103z" />
    <glyph glyph-name="Tbar" unicode="&#x166;" horiz-adv-x="316" 
d="M15 624v76h286v-76h-103v-214h76v-60h-76v-350h-80v350h-76v60h76v214h-103z" />
    <glyph glyph-name="Tcaron" unicode="&#x164;" horiz-adv-x="316" 
d="M62 884h54l42 -64l42 64h54l-54 -110h-84zM15 624v76h286v-76h-103v-624h-80v624h-103z" />
    <glyph glyph-name="uni0162" unicode="&#x162;" horiz-adv-x="316" 
d="M15 700h286v-76h-103v-624h-8l-24 -110h-82l42 110h-8v624h-103v76z" />
    <glyph glyph-name="uni021A" unicode="&#x21a;" horiz-adv-x="316" 
d="M15 624v76h286v-76h-103v-624h-80v624h-103zM125 -194v30c19 0 31 14 31 37h-31v67h66v-59c0 -43 -20 -75 -66 -75z" />
    <glyph glyph-name="U" unicode="U" horiz-adv-x="384" 
d="M134 -4c-58 0 -90 32 -90 90v614h80v-608c0 -13 7 -20 20 -20h96c13 0 20 7 20 20v608h80v-614c0 -58 -32 -90 -90 -90h-116z" />
    <glyph glyph-name="Uacute" unicode="&#xda;" horiz-adv-x="384" 
d="M161 774l54 110h82l-72 -110h-64zM134 -4c-58 0 -90 32 -90 90v614h80v-608c0 -13 7 -20 20 -20h96c13 0 20 7 20 20v608h80v-614c0 -58 -32 -90 -90 -90h-116z" />
    <glyph glyph-name="Ubreve" unicode="&#x16c;" horiz-adv-x="384" 
d="M193 770c-55 0 -100 45 -100 100h50c0 -28 22 -50 50 -50s50 22 50 50h50c0 -55 -45 -100 -100 -100zM134 -4c-58 0 -90 32 -90 90v614h80v-608c0 -13 7 -20 20 -20h96c13 0 20 7 20 20v608h80v-614c0 -58 -32 -90 -90 -90h-116z" />
    <glyph glyph-name="Ucircumflex" unicode="&#xdb;" horiz-adv-x="384" 
d="M97 774l54 110h84l54 -110h-54l-42 64l-42 -64h-54zM134 -4c-58 0 -90 32 -90 90v614h80v-608c0 -13 7 -20 20 -20h96c13 0 20 7 20 20v608h80v-614c0 -58 -32 -90 -90 -90h-116z" />
    <glyph glyph-name="Udieresis" unicode="&#xdc;" horiz-adv-x="384" 
d="M99 774v80h70v-80h-70zM217 774v80h70v-80h-70zM134 -4c-58 0 -90 32 -90 90v614h80v-608c0 -13 7 -20 20 -20h96c13 0 20 7 20 20v608h80v-614c0 -58 -32 -90 -90 -90h-116z" />
    <glyph glyph-name="uni1EE4" unicode="&#x1ee4;" horiz-adv-x="384" 
d="M134 -4c-58 0 -90 32 -90 90v614h80v-608c0 -13 7 -20 20 -20h96c13 0 20 7 20 20v608h80v-614c0 -58 -32 -90 -90 -90h-116zM155 -139v80h76v-80h-76z" />
    <glyph glyph-name="Ugrave" unicode="&#xd9;" horiz-adv-x="384" 
d="M161 774l-72 110h82l54 -110h-64zM134 -4c-58 0 -90 32 -90 90v614h80v-608c0 -13 7 -20 20 -20h96c13 0 20 7 20 20v608h80v-614c0 -58 -32 -90 -90 -90h-116z" />
    <glyph glyph-name="Uhungarumlaut" unicode="&#x170;" horiz-adv-x="384" 
d="M116 774l44 110h74l-62 -110h-56zM214 774l44 110h74l-62 -110h-56zM134 -4c-58 0 -90 32 -90 90v614h80v-608c0 -13 7 -20 20 -20h96c13 0 20 7 20 20v608h80v-614c0 -58 -32 -90 -90 -90h-116z" />
    <glyph glyph-name="Umacron" unicode="&#x16a;" horiz-adv-x="384" 
d="M110 774v60h166v-60h-166zM134 -4c-58 0 -90 32 -90 90v614h80v-608c0 -13 7 -20 20 -20h96c13 0 20 7 20 20v608h80v-614c0 -58 -32 -90 -90 -90h-116z" />
    <glyph glyph-name="Uogonek" unicode="&#x172;" horiz-adv-x="384" 
d="M260 700h80v-614c0 -46 -20 -76 -58 -86l-53 -105h53v-60h-54c-60 0 -70 48 -50 89l36 72h-80c-58 0 -90 32 -90 90v614h80v-608c0 -13 7 -20 20 -20h96c13 0 20 7 20 20v608z" />
    <glyph glyph-name="Uring" unicode="&#x16e;" horiz-adv-x="384" 
d="M193 770c-44 0 -80 36 -80 80s36 80 80 80s80 -36 80 -80s-36 -80 -80 -80zM193 810c22 0 40 18 40 40s-18 40 -40 40s-40 -18 -40 -40s18 -40 40 -40zM134 -4c-58 0 -90 32 -90 90v614h80v-608c0 -13 7 -20 20 -20h96c13 0 20 7 20 20v608h80v-614
c0 -58 -32 -90 -90 -90h-116z" />
    <glyph glyph-name="Utilde" unicode="&#x168;" horiz-adv-x="384" 
d="M238 765c-41 0 -65 30 -96 30c-18 0 -24 -16 -24 -25h-30c0 14 1 85 60 85c41 0 65 -30 96 -30c18 0 24 16 24 25h30c0 -14 -1 -85 -60 -85zM134 -4c-58 0 -90 32 -90 90v614h80v-608c0 -13 7 -20 20 -20h96c13 0 20 7 20 20v608h80v-614c0 -58 -32 -90 -90 -90h-116z
" />
    <glyph glyph-name="V" unicode="V" horiz-adv-x="360" 
d="M115 0l-105 700h80l90 -624l90 624h80l-105 -700h-130z" />
    <glyph glyph-name="W" unicode="W" horiz-adv-x="570" 
d="M10 700h80l81 -598l56 598h116l56 -598l81 598h80l-105 -700h-114l-56 579l-56 -579h-114z" />
    <glyph glyph-name="Wacute" unicode="&#x1e82;" horiz-adv-x="570" 
d="M253 774l54 110h82l-72 -110h-64zM10 700h80l81 -598l56 598h116l56 -598l81 598h80l-105 -700h-114l-56 579l-56 -579h-114z" />
    <glyph glyph-name="Wcircumflex" unicode="&#x174;" horiz-adv-x="570" 
d="M189 774l54 110h84l54 -110h-54l-42 64l-42 -64h-54zM10 700h80l81 -598l56 598h116l56 -598l81 598h80l-105 -700h-114l-56 579l-56 -579h-114z" />
    <glyph glyph-name="Wdieresis" unicode="&#x1e84;" horiz-adv-x="570" 
d="M191 774v80h70v-80h-70zM309 774v80h70v-80h-70zM10 700h80l81 -598l56 598h116l56 -598l81 598h80l-105 -700h-114l-56 579l-56 -579h-114z" />
    <glyph glyph-name="Wgrave" unicode="&#x1e80;" horiz-adv-x="570" 
d="M253 774l-72 110h82l54 -110h-64zM10 700h80l81 -598l56 598h116l56 -598l81 598h80l-105 -700h-114l-56 579l-56 -579h-114z" />
    <glyph glyph-name="X" unicode="X" horiz-adv-x="386" 
d="M15 0l121 350l-121 350h84l94 -282l94 282h84l-121 -350l121 -350h-84l-94 284l-94 -284h-84z" />
    <glyph glyph-name="Y" unicode="Y" horiz-adv-x="354" 
d="M7 700h80l90 -321l90 321h80l-130 -450v-250h-80v250z" />
    <glyph glyph-name="Yacute" unicode="&#xdd;" horiz-adv-x="354" 
d="M145 774l54 110h82l-72 -110h-64zM7 700h80l90 -321l90 321h80l-130 -450v-250h-80v250z" />
    <glyph glyph-name="Ycircumflex" unicode="&#x176;" horiz-adv-x="354" 
d="M81 774l54 110h84l54 -110h-54l-42 64l-42 -64h-54zM7 700h80l90 -321l90 321h80l-130 -450v-250h-80v250z" />
    <glyph glyph-name="Ydieresis" unicode="&#x178;" horiz-adv-x="354" 
d="M83 774v80h70v-80h-70zM201 774v80h70v-80h-70zM7 700h80l90 -321l90 321h80l-130 -450v-250h-80v250z" />
    <glyph glyph-name="Ygrave" unicode="&#x1ef2;" horiz-adv-x="354" 
d="M145 774l-72 110h82l54 -110h-64zM7 700h80l90 -321l90 321h80l-130 -450v-250h-80v250z" />
    <glyph glyph-name="Z" unicode="Z" horiz-adv-x="322" 
d="M25 0v76l190 548h-186v76h268v-76l-190 -548h190v-76h-272z" />
    <glyph glyph-name="Zacute" unicode="&#x179;" horiz-adv-x="322" 
d="M129 774l54 110h82l-72 -110h-64zM25 0v76l190 548h-186v76h268v-76l-190 -548h190v-76h-272z" />
    <glyph glyph-name="Zcaron" unicode="&#x17d;" horiz-adv-x="322" 
d="M65 884h54l42 -64l42 64h54l-54 -110h-84zM25 0v76l190 548h-186v76h268v-76l-190 -548h190v-76h-272z" />
    <glyph glyph-name="Zdotaccent" unicode="&#x17b;" horiz-adv-x="322" 
d="M123 774v80h76v-80h-76zM25 0v76l190 548h-186v76h268v-76l-190 -548h190v-76h-272z" />
    <glyph glyph-name="uni1E92" unicode="&#x1e92;" horiz-adv-x="322" 
d="M25 0v76l190 548h-186v76h268v-76l-190 -548h190v-76h-272zM123 -139v80h76v-80h-76z" />
    <glyph glyph-name="R.ss01" horiz-adv-x="383" 
d="M45 0v700h206c58 0 90 -32 90 -90v-202c0 -36 -14 -61 -55 -76c41 -15 55 -40 55 -76v-256h-80v274c0 13 -7 20 -20 20h-116v-294h-80zM125 370h116c13 0 20 7 20 20v214c0 13 -7 20 -20 20h-116v-254z" />
    <glyph glyph-name="Racute.ss01" horiz-adv-x="383" 
d="M139 774l54 110h82l-72 -110h-64zM45 0v700h206c58 0 90 -32 90 -90v-202c0 -36 -14 -61 -55 -76c41 -15 55 -40 55 -76v-256h-80v274c0 13 -7 20 -20 20h-116v-294h-80zM125 370h116c13 0 20 7 20 20v214c0 13 -7 20 -20 20h-116v-254z" />
    <glyph glyph-name="Rcaron.ss01" horiz-adv-x="383" 
d="M75 884h54l42 -64l42 64h54l-54 -110h-84zM45 0v700h206c58 0 90 -32 90 -90v-202c0 -36 -14 -61 -55 -76c41 -15 55 -40 55 -76v-256h-80v274c0 13 -7 20 -20 20h-116v-294h-80zM125 370h116c13 0 20 7 20 20v214c0 13 -7 20 -20 20h-116v-254z" />
    <glyph glyph-name="Rcommaaccent.ss01" horiz-adv-x="383" 
d="M45 0v700h206c58 0 90 -32 90 -90v-202c0 -36 -14 -61 -55 -76c41 -15 55 -40 55 -76v-256h-80v274c0 13 -7 20 -20 20h-116v-294h-80zM125 370h116c13 0 20 7 20 20v214c0 13 -7 20 -20 20h-116v-254zM158 -194v30c19 0 31 14 31 37h-31v67h66v-59
c0 -43 -20 -75 -66 -75z" />
    <glyph glyph-name="a" unicode="a" horiz-adv-x="339" 
d="M115 -4c-59 0 -90 32 -90 90v114c0 52 24 87 74 102l124 38v138c0 10 -6 16 -16 16h-80c-10 0 -16 -6 -16 -16v-98h-76v94c0 58 32 90 90 90h84c58 0 90 -32 90 -90v-474h-76v46l-40 -50h-68zM117 66h106v199l-109 -33c-9 -3 -13 -9 -13 -18v-132c0 -10 6 -16 16 -16z
" />
    <glyph glyph-name="aacute" unicode="&#xe1;" horiz-adv-x="339" 
d="M133 610l54 110h82l-72 -110h-64zM115 -4c-59 0 -90 32 -90 90v114c0 52 24 87 74 102l124 38v138c0 10 -6 16 -16 16h-80c-10 0 -16 -6 -16 -16v-98h-76v94c0 58 32 90 90 90h84c58 0 90 -32 90 -90v-474h-76v46l-40 -50h-68zM117 66h106v199l-109 -33
c-9 -3 -13 -9 -13 -18v-132c0 -10 6 -16 16 -16z" />
    <glyph glyph-name="abreve" unicode="&#x103;" horiz-adv-x="339" 
d="M165 610c-55 0 -100 45 -100 100h55c0 -25 20 -45 45 -45s45 20 45 45h55c0 -55 -45 -100 -100 -100zM115 -4c-59 0 -90 32 -90 90v114c0 52 24 87 74 102l124 38v138c0 10 -6 16 -16 16h-80c-10 0 -16 -6 -16 -16v-98h-76v94c0 58 32 90 90 90h84c58 0 90 -32 90 -90
v-474h-76v46l-40 -50h-68zM117 66h106v199l-109 -33c-9 -3 -13 -9 -13 -18v-132c0 -10 6 -16 16 -16z" />
    <glyph glyph-name="uni01CE" unicode="&#x1ce;" horiz-adv-x="339" 
d="M69 720h54l42 -64l42 64h54l-54 -110h-84zM115 -4c-59 0 -90 32 -90 90v114c0 52 24 87 74 102l124 38v138c0 10 -6 16 -16 16h-80c-10 0 -16 -6 -16 -16v-98h-76v94c0 58 32 90 90 90h84c58 0 90 -32 90 -90v-474h-76v46l-40 -50h-68zM117 66h106v199l-109 -33
c-9 -3 -13 -9 -13 -18v-132c0 -10 6 -16 16 -16z" />
    <glyph glyph-name="acircumflex" unicode="&#xe2;" horiz-adv-x="339" 
d="M69 610l54 110h84l54 -110h-54l-42 64l-42 -64h-54zM115 -4c-59 0 -90 32 -90 90v114c0 52 24 87 74 102l124 38v138c0 10 -6 16 -16 16h-80c-10 0 -16 -6 -16 -16v-98h-76v94c0 58 32 90 90 90h84c58 0 90 -32 90 -90v-474h-76v46l-40 -50h-68zM117 66h106v199l-109 -33
c-9 -3 -13 -9 -13 -18v-132c0 -10 6 -16 16 -16z" />
    <glyph glyph-name="adieresis" unicode="&#xe4;" horiz-adv-x="339" 
d="M71 628v80h70v-80h-70zM189 628v80h70v-80h-70zM115 -4c-59 0 -90 32 -90 90v114c0 52 24 87 74 102l124 38v138c0 10 -6 16 -16 16h-80c-10 0 -16 -6 -16 -16v-98h-76v94c0 58 32 90 90 90h84c58 0 90 -32 90 -90v-474h-76v46l-40 -50h-68zM117 66h106v199l-109 -33
c-9 -3 -13 -9 -13 -18v-132c0 -10 6 -16 16 -16z" />
    <glyph glyph-name="uni1EA1" unicode="&#x1ea1;" horiz-adv-x="339" 
d="M115 -4c-59 0 -90 32 -90 90v114c0 52 24 87 74 102l124 38v138c0 10 -6 16 -16 16h-80c-10 0 -16 -6 -16 -16v-98h-76v94c0 58 32 90 90 90h84c58 0 90 -32 90 -90v-474h-76v46l-40 -50h-68zM117 66h106v199l-109 -33c-9 -3 -13 -9 -13 -18v-132c0 -10 6 -16 16 -16z
M127 -139v80h76v-80h-76z" />
    <glyph glyph-name="agrave" unicode="&#xe0;" horiz-adv-x="339" 
d="M133 610l-72 110h82l54 -110h-64zM115 -4c-59 0 -90 32 -90 90v114c0 52 24 87 74 102l124 38v138c0 10 -6 16 -16 16h-80c-10 0 -16 -6 -16 -16v-98h-76v94c0 58 32 90 90 90h84c58 0 90 -32 90 -90v-474h-76v46l-40 -50h-68zM117 66h106v199l-109 -33
c-9 -3 -13 -9 -13 -18v-132c0 -10 6 -16 16 -16z" />
    <glyph glyph-name="amacron" unicode="&#x101;" horiz-adv-x="339" 
d="M83 634v60h166v-60h-166zM115 -4c-59 0 -90 32 -90 90v114c0 52 24 87 74 102l124 38v138c0 10 -6 16 -16 16h-80c-10 0 -16 -6 -16 -16v-98h-76v94c0 58 32 90 90 90h84c58 0 90 -32 90 -90v-474h-76v46l-40 -50h-68zM117 66h106v199l-109 -33c-9 -3 -13 -9 -13 -18
v-132c0 -10 6 -16 16 -16z" />
    <glyph glyph-name="aogonek" unicode="&#x105;" horiz-adv-x="339" 
d="M299 474v-474l-53 -105h53v-60h-54c-60 0 -70 48 -50 89l38 76h-10v46l-40 -50h-68c-59 0 -90 32 -90 90v114c0 52 24 87 74 102l124 38v138c0 10 -6 16 -16 16h-80c-10 0 -16 -6 -16 -16v-98h-76v94c0 58 32 90 90 90h84c58 0 90 -32 90 -90zM223 66v199l-109 -33
c-9 -3 -13 -9 -13 -18v-132c0 -10 6 -16 16 -16h106z" />
    <glyph glyph-name="aring" unicode="&#xe5;" horiz-adv-x="339" 
d="M165 610c-44 0 -80 36 -80 80s36 80 80 80s80 -36 80 -80s-36 -80 -80 -80zM165 650c22 0 40 18 40 40s-18 40 -40 40s-40 -18 -40 -40s18 -40 40 -40zM115 -4c-59 0 -90 32 -90 90v114c0 52 24 87 74 102l124 38v138c0 10 -6 16 -16 16h-80c-10 0 -16 -6 -16 -16v-98
h-76v94c0 58 32 90 90 90h84c58 0 90 -32 90 -90v-474h-76v46l-40 -50h-68zM117 66h106v199l-109 -33c-9 -3 -13 -9 -13 -18v-132c0 -10 6 -16 16 -16z" />
    <glyph glyph-name="atilde" unicode="&#xe3;" horiz-adv-x="339" 
d="M210 625c-41 0 -65 30 -96 30c-18 0 -24 -16 -24 -25h-30c0 14 1 85 60 85c41 0 65 -30 96 -30c18 0 24 16 24 25h30c0 -14 -1 -85 -60 -85zM115 -4c-59 0 -90 32 -90 90v114c0 52 24 87 74 102l124 38v138c0 10 -6 16 -16 16h-80c-10 0 -16 -6 -16 -16v-98h-76v94
c0 58 32 90 90 90h84c58 0 90 -32 90 -90v-474h-76v46l-40 -50h-68zM117 66h106v199l-109 -33c-9 -3 -13 -9 -13 -18v-132c0 -10 6 -16 16 -16z" />
    <glyph glyph-name="ae" unicode="&#xe6;" horiz-adv-x="530" 
d="M104 -6c-51 0 -79 32 -79 90v116c0 52 24 85 74 102l124 41v137c0 10 -6 16 -16 16h-80c-10 0 -16 -6 -16 -16v-106h-76v102c0 58 32 90 90 90h96l40 -50l40 50h102c58 0 90 -32 90 -90v-225h-194v-171c0 -10 6 -16 16 -16h86c10 0 16 6 16 16v105h76v-101
c0 -58 -32 -90 -90 -90h-102l-40 50l-40 -50h-117zM299 321h118v159c0 10 -6 16 -16 16h-86c-10 0 -16 -6 -16 -16v-159zM117 64h90c10 0 16 5 16 15v186l-109 -33c-9 -3 -13 -9 -13 -18v-134c0 -10 6 -16 16 -16z" />
    <glyph glyph-name="b" unicode="b" horiz-adv-x="352" 
d="M156 -4l-40 50v-46h-76v720h76v-206l40 50h68c58 0 90 -32 90 -90v-388c0 -58 -32 -90 -90 -90h-68zM116 66h106c10 0 16 6 16 16v396c0 10 -6 16 -16 16h-106v-428z" />
    <glyph glyph-name="c" unicode="c" horiz-adv-x="347" 
d="M128 -4c-58 0 -90 32 -90 90v388c0 58 32 90 90 90h94c58 0 90 -32 90 -90v-128h-76v132c0 10 -6 16 -16 16h-90c-10 0 -16 -6 -16 -16v-396c0 -10 6 -16 16 -16h90c10 0 16 6 16 16v132h76v-128c0 -58 -32 -90 -90 -90h-94z" />
    <glyph glyph-name="cacute" unicode="&#x107;" horiz-adv-x="347" 
d="M142 610l54 110h82l-72 -110h-64zM128 -4c-58 0 -90 32 -90 90v388c0 58 32 90 90 90h94c58 0 90 -32 90 -90v-128h-76v132c0 10 -6 16 -16 16h-90c-10 0 -16 -6 -16 -16v-396c0 -10 6 -16 16 -16h90c10 0 16 6 16 16v132h76v-128c0 -58 -32 -90 -90 -90h-94z" />
    <glyph glyph-name="ccaron" unicode="&#x10d;" horiz-adv-x="347" 
d="M78 720h54l42 -64l42 64h54l-54 -110h-84zM128 -4c-58 0 -90 32 -90 90v388c0 58 32 90 90 90h94c58 0 90 -32 90 -90v-128h-76v132c0 10 -6 16 -16 16h-90c-10 0 -16 -6 -16 -16v-396c0 -10 6 -16 16 -16h90c10 0 16 6 16 16v132h76v-128c0 -58 -32 -90 -90 -90h-94z
" />
    <glyph glyph-name="ccedilla" unicode="&#xe7;" horiz-adv-x="347" 
d="M312 346h-76v132c0 10 -6 16 -16 16h-90c-10 0 -16 -6 -16 -16v-396c0 -10 6 -16 16 -16h90c10 0 16 6 16 16v132h76v-128c0 -58 -32 -90 -90 -90h-17l-23 -106h-82l40 106h-12c-58 0 -90 32 -90 90v388c0 58 32 90 90 90h94c58 0 90 -32 90 -90v-128z" />
    <glyph glyph-name="ccircumflex" unicode="&#x109;" horiz-adv-x="347" 
d="M78 610l54 110h84l54 -110h-54l-42 64l-42 -64h-54zM128 -4c-58 0 -90 32 -90 90v388c0 58 32 90 90 90h94c58 0 90 -32 90 -90v-128h-76v132c0 10 -6 16 -16 16h-90c-10 0 -16 -6 -16 -16v-396c0 -10 6 -16 16 -16h90c10 0 16 6 16 16v132h76v-128
c0 -58 -32 -90 -90 -90h-94z" />
    <glyph glyph-name="cdotaccent" unicode="&#x10b;" horiz-adv-x="347" 
d="M136 628v80h76v-80h-76zM128 -4c-58 0 -90 32 -90 90v388c0 58 32 90 90 90h94c58 0 90 -32 90 -90v-128h-76v132c0 10 -6 16 -16 16h-90c-10 0 -16 -6 -16 -16v-396c0 -10 6 -16 16 -16h90c10 0 16 6 16 16v132h76v-128c0 -58 -32 -90 -90 -90h-94z" />
    <glyph glyph-name="d" unicode="d" horiz-adv-x="352" 
d="M128 -4c-58 0 -90 32 -90 90v388c0 58 32 90 90 90h68l40 -50v206h76v-720h-76v46l-40 -50h-68zM130 66h106v428h-106c-10 0 -16 -6 -16 -16v-396c0 -10 6 -16 16 -16z" />
    <glyph glyph-name="eth" unicode="&#xf0;" horiz-adv-x="352" 
d="M128 -4c-58 0 -90 32 -90 90v364c0 58 32 90 90 90h68l40 -50v3l-38 107h-84v50h66l-24 70h76l24 -70h96l-40 -50h-38l38 -110v-404c0 -58 -32 -90 -90 -90h-94zM130 66h90c10 0 16 6 16 16v388h-106c-10 0 -16 -6 -16 -16v-372c0 -10 6 -16 16 -16z" />
    <glyph glyph-name="dcaron" unicode="&#x10f;" horiz-adv-x="425" 
d="M128 -4c-58 0 -90 32 -90 90v388c0 58 32 90 90 90h68l40 -50v206h76v-720h-76v46l-40 -50h-68zM349 580v140h76l-30 -140h-46zM130 66h106v428h-106c-10 0 -16 -6 -16 -16v-396c0 -10 6 -16 16 -16z" />
    <glyph glyph-name="dcroat" unicode="&#x111;" horiz-adv-x="349" 
d="M38 86v388c0 58 32 90 90 90h68l40 -50v96h-80v50h80v60h76v-60h30v-50h-30v-610h-76v46l-40 -50h-68c-58 0 -90 32 -90 90zM114 82c0 -10 6 -16 16 -16h106v428h-106c-10 0 -16 -6 -16 -16v-396z" />
    <glyph glyph-name="e" unicode="e" horiz-adv-x="349" 
d="M38 86v388c0 58 32 90 90 90h94c58 0 90 -32 90 -90v-223h-198v-169c0 -10 6 -16 16 -16h90c10 0 16 6 16 16v97h76v-93c0 -58 -32 -90 -90 -90h-94c-58 0 -90 32 -90 90zM114 321h122v157c0 10 -6 16 -16 16h-90c-10 0 -16 -6 -16 -16v-157z" />
    <glyph glyph-name="eacute" unicode="&#xe9;" horiz-adv-x="349" 
d="M143 610l54 110h82l-72 -110h-64zM38 86v388c0 58 32 90 90 90h94c58 0 90 -32 90 -90v-223h-198v-169c0 -10 6 -16 16 -16h90c10 0 16 6 16 16v97h76v-93c0 -58 -32 -90 -90 -90h-94c-58 0 -90 32 -90 90zM114 321h122v157c0 10 -6 16 -16 16h-90c-10 0 -16 -6 -16 -16
v-157z" />
    <glyph glyph-name="ecaron" unicode="&#x11b;" horiz-adv-x="349" 
d="M72 720h54l42 -64l42 64h54l-54 -110h-84zM38 86v388c0 58 32 90 90 90h94c58 0 90 -32 90 -90v-223h-198v-169c0 -10 6 -16 16 -16h90c10 0 16 6 16 16v97h76v-93c0 -58 -32 -90 -90 -90h-94c-58 0 -90 32 -90 90zM114 321h122v157c0 10 -6 16 -16 16h-90
c-10 0 -16 -6 -16 -16v-157z" />
    <glyph glyph-name="ecircumflex" unicode="&#xea;" horiz-adv-x="349" 
d="M79 610l54 110h84l54 -110h-54l-42 64l-42 -64h-54zM38 86v388c0 58 32 90 90 90h94c58 0 90 -32 90 -90v-223h-198v-169c0 -10 6 -16 16 -16h90c10 0 16 6 16 16v97h76v-93c0 -58 -32 -90 -90 -90h-94c-58 0 -90 32 -90 90zM114 321h122v157c0 10 -6 16 -16 16h-90
c-10 0 -16 -6 -16 -16v-157z" />
    <glyph glyph-name="edieresis" unicode="&#xeb;" horiz-adv-x="349" 
d="M81 628v80h70v-80h-70zM199 628v80h70v-80h-70zM38 86v388c0 58 32 90 90 90h94c58 0 90 -32 90 -90v-223h-198v-169c0 -10 6 -16 16 -16h90c10 0 16 6 16 16v97h76v-93c0 -58 -32 -90 -90 -90h-94c-58 0 -90 32 -90 90zM114 321h122v157c0 10 -6 16 -16 16h-90
c-10 0 -16 -6 -16 -16v-157z" />
    <glyph glyph-name="edotaccent" unicode="&#x117;" horiz-adv-x="349" 
d="M137 628v80h76v-80h-76zM38 86v388c0 58 32 90 90 90h94c58 0 90 -32 90 -90v-223h-198v-169c0 -10 6 -16 16 -16h90c10 0 16 6 16 16v97h76v-93c0 -58 -32 -90 -90 -90h-94c-58 0 -90 32 -90 90zM114 321h122v157c0 10 -6 16 -16 16h-90c-10 0 -16 -6 -16 -16v-157z" />
    <glyph glyph-name="uni1EB9" unicode="&#x1eb9;" horiz-adv-x="349" 
d="M38 86v388c0 58 32 90 90 90h94c58 0 90 -32 90 -90v-223h-198v-169c0 -10 6 -16 16 -16h90c10 0 16 6 16 16v97h76v-93c0 -58 -32 -90 -90 -90h-94c-58 0 -90 32 -90 90zM114 321h122v157c0 10 -6 16 -16 16h-90c-10 0 -16 -6 -16 -16v-157zM137 -139v80h76v-80h-76z
" />
    <glyph glyph-name="egrave" unicode="&#xe8;" horiz-adv-x="349" 
d="M143 610l-72 110h82l54 -110h-64zM38 86v388c0 58 32 90 90 90h94c58 0 90 -32 90 -90v-223h-198v-169c0 -10 6 -16 16 -16h90c10 0 16 6 16 16v97h76v-93c0 -58 -32 -90 -90 -90h-94c-58 0 -90 32 -90 90zM114 321h122v157c0 10 -6 16 -16 16h-90c-10 0 -16 -6 -16 -16
v-157z" />
    <glyph glyph-name="emacron" unicode="&#x113;" horiz-adv-x="349" 
d="M92 634v60h166v-60h-166zM38 86v388c0 58 32 90 90 90h94c58 0 90 -32 90 -90v-223h-198v-169c0 -10 6 -16 16 -16h90c10 0 16 6 16 16v97h76v-93c0 -58 -32 -90 -90 -90h-94c-58 0 -90 32 -90 90zM114 321h122v157c0 10 -6 16 -16 16h-90c-10 0 -16 -6 -16 -16v-157z
" />
    <glyph glyph-name="eogonek" unicode="&#x119;" horiz-adv-x="349" 
d="M219 -175c-52 0 -70 38 -40 99l36 72h-87c-58 0 -90 32 -90 90v388c0 58 32 90 90 90h94c58 0 90 -32 90 -90v-223h-198v-169c0 -10 6 -16 16 -16h90c10 0 16 6 16 16v97h76v-93c0 -21 -4 -38 -12 -52l-70 -139h53v-70h-64zM114 321h122v157c0 10 -6 16 -16 16h-90
c-10 0 -16 -6 -16 -16v-157z" />
    <glyph glyph-name="uni1EBD" unicode="&#x1ebd;" horiz-adv-x="349" 
d="M220 625c-41 0 -65 30 -96 30c-18 0 -24 -16 -24 -25h-30c0 14 1 85 60 85c41 0 65 -30 96 -30c18 0 24 16 24 25h30c0 -14 -1 -85 -60 -85zM38 86v388c0 58 32 90 90 90h94c58 0 90 -32 90 -90v-223h-198v-169c0 -10 6 -16 16 -16h90c10 0 16 6 16 16v97h76v-93
c0 -58 -32 -90 -90 -90h-94c-58 0 -90 32 -90 90zM114 321h122v157c0 10 -6 16 -16 16h-90c-10 0 -16 -6 -16 -16v-157z" />
    <glyph glyph-name="uni0259" unicode="&#x259;" horiz-adv-x="349" 
d="M311 474v-388c0 -58 -32 -90 -90 -90h-94c-58 0 -90 32 -90 90v223h198v169c0 10 -6 16 -16 16h-90c-10 0 -16 -6 -16 -16v-97h-76v93c0 58 32 90 90 90h94c58 0 90 -32 90 -90zM235 239h-122v-157c0 -10 6 -16 16 -16h90c10 0 16 6 16 16v157z" />
    <glyph glyph-name="f" unicode="f" horiz-adv-x="194" 
d="M10 490v70h36v70c0 58 32 90 90 90h52v-70h-50c-10 0 -16 -6 -16 -16v-74h66v-70h-66v-490h-76v490h-36z" />
    <glyph glyph-name="g" unicode="g" horiz-adv-x="352" 
d="M38 100v374c0 58 32 90 90 90h68l40 -50v46h76v-634c0 -58 -32 -90 -90 -90h-88c-58 0 -90 32 -90 90v31h76v-35c0 -10 6 -16 16 -16h84c10 0 16 6 16 16v138l-40 -50h-68c-58 0 -90 32 -90 90zM114 96c0 -10 6 -16 16 -16h106v414h-106c-10 0 -16 -6 -16 -16v-382z" />
    <glyph glyph-name="gbreve" unicode="&#x11f;" horiz-adv-x="352" 
d="M173 610c-55 0 -100 45 -100 100h55c0 -25 20 -45 45 -45s45 20 45 45h55c0 -55 -45 -100 -100 -100zM38 100v374c0 58 32 90 90 90h68l40 -50v46h76v-634c0 -58 -32 -90 -90 -90h-88c-58 0 -90 32 -90 90v31h76v-35c0 -10 6 -16 16 -16h84c10 0 16 6 16 16v138l-40 -50
h-68c-58 0 -90 32 -90 90zM114 96c0 -10 6 -16 16 -16h106v414h-106c-10 0 -16 -6 -16 -16v-382z" />
    <glyph glyph-name="gcaron" unicode="&#x1e7;" horiz-adv-x="352" 
d="M77 720h54l42 -64l42 64h54l-54 -110h-84zM38 100v374c0 58 32 90 90 90h68l40 -50v46h76v-634c0 -58 -32 -90 -90 -90h-88c-58 0 -90 32 -90 90v31h76v-35c0 -10 6 -16 16 -16h84c10 0 16 6 16 16v138l-40 -50h-68c-58 0 -90 32 -90 90zM114 96c0 -10 6 -16 16 -16h106
v414h-106c-10 0 -16 -6 -16 -16v-382z" />
    <glyph glyph-name="gcircumflex" unicode="&#x11d;" horiz-adv-x="352" 
d="M77 610l54 110h84l54 -110h-54l-42 64l-42 -64h-54zM38 100v374c0 58 32 90 90 90h68l40 -50v46h76v-634c0 -58 -32 -90 -90 -90h-88c-58 0 -90 32 -90 90v31h76v-35c0 -10 6 -16 16 -16h84c10 0 16 6 16 16v138l-40 -50h-68c-58 0 -90 32 -90 90zM114 96
c0 -10 6 -16 16 -16h106v414h-106c-10 0 -16 -6 -16 -16v-382z" />
    <glyph glyph-name="gcommaaccent" unicode="&#x123;" horiz-adv-x="352" 
d="M127 610v59c0 43 20 75 66 75v-30c-19 0 -31 -14 -31 -37h31v-67h-66zM38 100v374c0 58 32 90 90 90h68l40 -50v46h76v-634c0 -58 -32 -90 -90 -90h-88c-58 0 -90 32 -90 90v31h76v-35c0 -10 6 -16 16 -16h84c10 0 16 6 16 16v138l-40 -50h-68c-58 0 -90 32 -90 90z
M114 96c0 -10 6 -16 16 -16h106v414h-106c-10 0 -16 -6 -16 -16v-382z" />
    <glyph glyph-name="gdotaccent" unicode="&#x121;" horiz-adv-x="352" 
d="M135 628v80h76v-80h-76zM38 100v374c0 58 32 90 90 90h68l40 -50v46h76v-634c0 -58 -32 -90 -90 -90h-88c-58 0 -90 32 -90 90v31h76v-35c0 -10 6 -16 16 -16h84c10 0 16 6 16 16v138l-40 -50h-68c-58 0 -90 32 -90 90zM114 96c0 -10 6 -16 16 -16h106v414h-106
c-10 0 -16 -6 -16 -16v-382z" />
    <glyph glyph-name="h" unicode="h" horiz-adv-x="354" 
d="M40 0v720h76v-206l40 50h68c58 0 90 -32 90 -90v-474h-76v478c0 10 -6 16 -16 16h-106v-494h-76z" />
    <glyph glyph-name="hbar" unicode="&#x127;" horiz-adv-x="354" 
d="M10 610v50h30v60h76v-60h80v-50h-80v-96l40 50h68c58 0 90 -32 90 -90v-474h-76v478c0 10 -6 16 -16 16h-106v-494h-76v610h-30z" />
    <glyph glyph-name="hcircumflex" unicode="&#x125;" horiz-adv-x="354" 
d="M-18 750l54 110h84l54 -110h-54l-42 64l-42 -64h-54zM40 0v720h76v-206l40 50h79c51 0 79 -32 79 -90v-474h-76v478c0 10 -6 16 -16 16h-106v-494h-76z" />
    <glyph glyph-name="i" unicode="i" horiz-adv-x="156" 
d="M40 640v80h76v-80h-76zM40 0v560h76v-560h-76z" />
    <glyph glyph-name="dotlessi" unicode="&#x131;" horiz-adv-x="156" 
d="M40 0v560h76v-560h-76z" />
    <glyph glyph-name="iacute" unicode="&#xed;" horiz-adv-x="156" 
d="M46 610l54 110h82l-72 -110h-64zM40 0v560h76v-560h-76z" />
    <glyph glyph-name="uni01D0" unicode="&#x1d0;" horiz-adv-x="156" 
d="M-18 720h54l42 -64l42 64h54l-54 -110h-84zM40 0v560h76v-560h-76z" />
    <glyph glyph-name="icircumflex" unicode="&#xee;" horiz-adv-x="156" 
d="M-18 610l54 110h84l54 -110h-54l-42 64l-42 -64h-54zM40 0v560h76v-560h-76z" />
    <glyph glyph-name="idieresis" unicode="&#xef;" horiz-adv-x="156" 
d="M-16 628v80h70v-80h-70zM102 628v80h70v-80h-70zM40 0v560h76v-560h-76z" />
    <glyph glyph-name="i.loclTRK" horiz-adv-x="156" 
d="M40 640v80h76v-80h-76zM40 0v560h76v-560h-76z" />
    <glyph glyph-name="uni1ECB" unicode="&#x1ecb;" horiz-adv-x="156" 
d="M40 640v80h76v-80h-76zM40 0v560h76v-560h-76zM40 -139v80h76v-80h-76z" />
    <glyph glyph-name="igrave" unicode="&#xec;" horiz-adv-x="156" 
d="M46 610l-72 110h82l54 -110h-64zM40 0v560h76v-560h-76z" />
    <glyph glyph-name="ij" unicode="&#x133;" horiz-adv-x="313" 
d="M40 640v80h76v-80h-76zM197 640v80h76v-80h-76zM40 0v560h76v-560h-76zM139 -160v70h42c10 0 16 6 16 16v634h76v-630c0 -58 -32 -90 -90 -90h-44z" />
    <glyph glyph-name="imacron" unicode="&#x12b;" horiz-adv-x="156" 
d="M-5 634v60h166v-60h-166zM40 0v560h76v-560h-76z" />
    <glyph glyph-name="iogonek" unicode="&#x12f;" horiz-adv-x="156" 
d="M40 720h76v-80h-76v80zM40 0v560h76v-560l-53 -105h53v-60h-54c-60 0 -70 48 -50 89l38 76h-10z" />
    <glyph glyph-name="itilde" unicode="&#x129;" horiz-adv-x="156" 
d="M123 625c-41 0 -65 30 -96 30c-18 0 -24 -16 -24 -25h-30c0 14 1 85 60 85c41 0 65 -30 96 -30c18 0 24 16 24 25h30c0 -14 -1 -85 -60 -85zM40 0v560h76v-560h-76z" />
    <glyph glyph-name="j" unicode="j" horiz-adv-x="157" 
d="M41 640v80h76v-80h-76zM-17 -160v70h42c10 0 16 6 16 16v634h76v-630c0 -58 -32 -90 -90 -90h-44z" />
    <glyph glyph-name="uni0237" unicode="&#x237;" horiz-adv-x="157" 
d="M-17 -160v70h42c10 0 16 6 16 16v634h76v-630c0 -58 -32 -90 -90 -90h-44z" />
    <glyph glyph-name="uni006A0301" horiz-adv-x="157" 
d="M47 610l54 110h82l-72 -110h-64zM-17 -160v70h42c10 0 16 6 16 16v634h76v-630c0 -58 -32 -90 -90 -90h-44z" />
    <glyph glyph-name="jcircumflex" unicode="&#x135;" horiz-adv-x="156" 
d="M-18 610l54 110h84l54 -110h-54l-42 64l-42 -64h-54zM-17 -160v70h42c10 0 16 6 16 16v634h76v-630c0 -58 -32 -90 -90 -90h-44z" />
    <glyph glyph-name="k" unicode="k" horiz-adv-x="351" 
d="M40 0v720h76v-429l143 269h82l-144 -270l144 -290h-82l-143 289v-289h-76z" />
    <glyph glyph-name="kcommaaccent" unicode="&#x137;" horiz-adv-x="351" 
d="M40 0v720h76v-429l143 269h82l-144 -270l144 -290h-82l-143 289v-289h-76zM142 -194v30c19 0 31 14 31 37h-31v67h66v-59c0 -43 -20 -75 -66 -75z" />
    <glyph glyph-name="l" unicode="l" horiz-adv-x="156" 
d="M40 0v720h76v-720h-76z" />
    <glyph glyph-name="lacute" unicode="&#x13a;" horiz-adv-x="156" 
d="M52 774l54 110h82l-72 -110h-64zM40 0v720h76v-720h-76z" />
    <glyph glyph-name="lcaron" unicode="&#x13e;" horiz-adv-x="252" 
d="M40 0v720h76v-720h-76zM166 580v140h76l-30 -140h-46z" />
    <glyph glyph-name="lcommaaccent" unicode="&#x13c;" horiz-adv-x="156" 
d="M40 0v720h76v-720h-76zM45 -194v30c19 0 31 14 31 37h-31v67h66v-59c0 -43 -20 -75 -66 -75z" />
    <glyph glyph-name="ldot" unicode="&#x140;" horiz-adv-x="252" 
d="M40 0v720h76v-720h-76zM164 300v110h78v-110h-78z" />
    <glyph glyph-name="lslash" unicode="&#x142;" horiz-adv-x="206" 
d="M10 306v50l45 19v345h76v-312l65 28v-50l-65 -28v-358h-76v325z" />
    <glyph glyph-name="m" unicode="m" horiz-adv-x="532" 
d="M40 0v560h76v-46l40 50h58c43 0 71 -17 83 -50l40 50h65c58 0 90 -32 90 -90v-474h-76v478c0 10 -6 16 -16 16h-97c1 -6 1 -13 1 -20v-474h-76v478c0 10 -6 16 -16 16h-96v-494h-76z" />
    <glyph glyph-name="n" unicode="n" horiz-adv-x="354" 
d="M40 0v560h76v-46l40 50h68c58 0 90 -32 90 -90v-474h-76v478c0 10 -6 16 -16 16h-106v-494h-76z" />
    <glyph glyph-name="nacute" unicode="&#x144;" horiz-adv-x="354" 
d="M145 610l54 110h82l-72 -110h-64zM40 0v560h76v-46l40 50h68c58 0 90 -32 90 -90v-474h-76v478c0 10 -6 16 -16 16h-106v-494h-76z" />
    <glyph glyph-name="ncaron" unicode="&#x148;" horiz-adv-x="354" 
d="M81 720h54l42 -64l42 64h54l-54 -110h-84zM40 0v560h76v-46l40 50h68c58 0 90 -32 90 -90v-474h-76v478c0 10 -6 16 -16 16h-106v-494h-76z" />
    <glyph glyph-name="ncommaaccent" unicode="&#x146;" horiz-adv-x="354" 
d="M40 0v560h76v-46l40 50h68c58 0 90 -32 90 -90v-474h-76v478c0 10 -6 16 -16 16h-106v-494h-76zM144 -194v30c19 0 31 14 31 37h-31v67h66v-59c0 -43 -20 -75 -66 -75z" />
    <glyph glyph-name="eng" unicode="&#x14b;" horiz-adv-x="354" 
d="M40 0v560h76v-46l40 50h68c58 0 90 -32 90 -90v-544c0 -58 -32 -90 -90 -90h-44v70h42c10 0 16 6 16 16v552c0 10 -6 16 -16 16h-106v-494h-76z" />
    <glyph glyph-name="uni0272" unicode="&#x272;" horiz-adv-x="355" 
d="M-17 -160v70h42c10 0 16 6 16 16v634h76v-46l40 50h68c58 0 90 -32 90 -90v-474h-76v478c0 10 -6 16 -16 16h-106v-564c0 -58 -32 -90 -90 -90h-44z" />
    <glyph glyph-name="ntilde" unicode="&#xf1;" horiz-adv-x="354" 
d="M222 625c-41 0 -65 30 -96 30c-18 0 -24 -16 -24 -25h-30c0 14 1 85 60 85c41 0 65 -30 96 -30c18 0 24 16 24 25h30c0 -14 -1 -85 -60 -85zM40 0v560h76v-46l40 50h68c58 0 90 -32 90 -90v-474h-76v478c0 10 -6 16 -16 16h-106v-494h-76z" />
    <glyph glyph-name="o" unicode="o" horiz-adv-x="350" 
d="M128 -4c-58 0 -90 32 -90 90v388c0 58 32 90 90 90h94c58 0 90 -32 90 -90v-388c0 -58 -32 -90 -90 -90h-94zM130 66h90c10 0 16 6 16 16v396c0 10 -6 16 -16 16h-90c-10 0 -16 -6 -16 -16v-396c0 -10 6 -16 16 -16z" />
    <glyph glyph-name="oacute" unicode="&#xf3;" horiz-adv-x="350" 
d="M141 610l54 110h82l-72 -110h-64zM128 -4c-58 0 -90 32 -90 90v388c0 58 32 90 90 90h94c58 0 90 -32 90 -90v-388c0 -58 -32 -90 -90 -90h-94zM130 66h90c10 0 16 6 16 16v396c0 10 -6 16 -16 16h-90c-10 0 -16 -6 -16 -16v-396c0 -10 6 -16 16 -16z" />
    <glyph glyph-name="ocircumflex" unicode="&#xf4;" horiz-adv-x="350" 
d="M77 610l54 110h84l54 -110h-54l-42 64l-42 -64h-54zM128 -4c-58 0 -90 32 -90 90v388c0 58 32 90 90 90h94c58 0 90 -32 90 -90v-388c0 -58 -32 -90 -90 -90h-94zM130 66h90c10 0 16 6 16 16v396c0 10 -6 16 -16 16h-90c-10 0 -16 -6 -16 -16v-396c0 -10 6 -16 16 -16z
" />
    <glyph glyph-name="odieresis" unicode="&#xf6;" horiz-adv-x="350" 
d="M79 628v80h70v-80h-70zM197 628v80h70v-80h-70zM128 -4c-58 0 -90 32 -90 90v388c0 58 32 90 90 90h94c58 0 90 -32 90 -90v-388c0 -58 -32 -90 -90 -90h-94zM130 66h90c10 0 16 6 16 16v396c0 10 -6 16 -16 16h-90c-10 0 -16 -6 -16 -16v-396c0 -10 6 -16 16 -16z" />
    <glyph glyph-name="ograve" unicode="&#xf2;" horiz-adv-x="350" 
d="M141 610l-72 110h82l54 -110h-64zM128 -4c-58 0 -90 32 -90 90v388c0 58 32 90 90 90h94c58 0 90 -32 90 -90v-388c0 -58 -32 -90 -90 -90h-94zM130 66h90c10 0 16 6 16 16v396c0 10 -6 16 -16 16h-90c-10 0 -16 -6 -16 -16v-396c0 -10 6 -16 16 -16z" />
    <glyph glyph-name="ohungarumlaut" unicode="&#x151;" horiz-adv-x="353" 
d="M99 610l44 110h74l-62 -110h-56zM197 610l44 110h74l-62 -110h-56zM128 -4c-58 0 -90 32 -90 90v388c0 58 32 90 90 90h94c58 0 90 -32 90 -90v-388c0 -58 -32 -90 -90 -90h-94zM130 66h90c10 0 16 6 16 16v396c0 10 -6 16 -16 16h-90c-10 0 -16 -6 -16 -16v-396
c0 -10 6 -16 16 -16z" />
    <glyph glyph-name="omacron" unicode="&#x14d;" horiz-adv-x="350" 
d="M90 634v60h166v-60h-166zM128 -4c-58 0 -90 32 -90 90v388c0 58 32 90 90 90h94c58 0 90 -32 90 -90v-388c0 -58 -32 -90 -90 -90h-94zM130 66h90c10 0 16 6 16 16v396c0 10 -6 16 -16 16h-90c-10 0 -16 -6 -16 -16v-396c0 -10 6 -16 16 -16z" />
    <glyph glyph-name="oslash" unicode="&#xf8;" horiz-adv-x="350" 
d="M128 -4c-58 0 -90 32 -90 90v388c0 58 32 90 90 90h94c58 0 90 -32 90 -90v-388c0 -58 -32 -90 -90 -90h-94zM114 191l122 287c0 10 -6 16 -16 16h-90c-10 0 -16 -6 -16 -16v-287zM130 66h90c10 0 16 6 16 16v287l-122 -287c0 -10 6 -16 16 -16z" />
    <glyph glyph-name="otilde" unicode="&#xf5;" horiz-adv-x="350" 
d="M218 625c-41 0 -65 30 -96 30c-18 0 -24 -16 -24 -25h-30c0 14 1 85 60 85c41 0 65 -30 96 -30c18 0 24 16 24 25h30c0 -14 -1 -85 -60 -85zM128 -4c-58 0 -90 32 -90 90v388c0 58 32 90 90 90h94c58 0 90 -32 90 -90v-388c0 -58 -32 -90 -90 -90h-94zM130 66h90
c10 0 16 6 16 16v396c0 10 -6 16 -16 16h-90c-10 0 -16 -6 -16 -16v-396c0 -10 6 -16 16 -16z" />
    <glyph glyph-name="oe" unicode="&#x153;" horiz-adv-x="543" 
d="M128 -4c-58 0 -90 32 -90 90v388c0 58 32 90 90 90h102l40 -48l40 48h106c58 0 90 -32 90 -90v-223h-198v-169c0 -10 6 -16 16 -16h90c10 0 16 6 16 16v97h76v-93c0 -58 -32 -90 -90 -90h-106l-40 48l-40 -48h-102zM130 66h86c10 0 16 6 16 16v396c0 10 -6 16 -16 16h-86
c-10 0 -16 -6 -16 -16v-396c0 -10 6 -16 16 -16zM308 321h122v157c0 10 -6 16 -16 16h-90c-10 0 -16 -6 -16 -16v-157z" />
    <glyph glyph-name="p" unicode="p" horiz-adv-x="352" 
d="M40 -160v720h76v-46l40 50h68c58 0 90 -32 90 -90v-388c0 -58 -32 -90 -90 -90h-68l-40 50v-206h-76zM116 66h106c10 0 16 6 16 16v396c0 10 -6 16 -16 16h-106v-428z" />
    <glyph glyph-name="thorn" unicode="&#xfe;" horiz-adv-x="352" 
d="M40 -160v860h76v-186l40 50h68c58 0 90 -32 90 -90v-388c0 -58 -32 -90 -90 -90h-68l-40 50v-206h-76zM116 66h106c10 0 16 6 16 16v396c0 10 -6 16 -16 16h-106v-428z" />
    <glyph glyph-name="q" unicode="q" horiz-adv-x="352" 
d="M236 -160v206l-40 -50h-68c-58 0 -90 32 -90 90v388c0 58 32 90 90 90h68l40 -50v46h76v-720h-76zM130 66h106v428h-106c-10 0 -16 -6 -16 -16v-396c0 -10 6 -16 16 -16z" />
    <glyph glyph-name="r" unicode="r" horiz-adv-x="239" 
d="M40 0v560h76v-50l40 50h73v-70h-113v-490h-76z" />
    <glyph glyph-name="racute" unicode="&#x155;" horiz-adv-x="239" 
d="M88 610l54 110h82l-72 -110h-64zM40 0v560h76v-50l40 50h73v-70h-113v-490h-76z" />
    <glyph glyph-name="rcaron" unicode="&#x159;" horiz-adv-x="239" 
d="M24 720h54l42 -64l42 64h54l-54 -110h-84zM40 0v560h76v-50l40 50h73v-70h-113v-490h-76z" />
    <glyph glyph-name="rcommaaccent" unicode="&#x157;" horiz-adv-x="239" 
d="M40 0v560h76v-50l40 50h73v-70h-113v-490h-76zM40 -194v30c19 0 31 14 31 37h-31v67h66v-59c0 -43 -20 -75 -66 -75z" />
    <glyph glyph-name="s" unicode="s" horiz-adv-x="338" 
d="M122 -4c-58 0 -90 32 -90 90v114h76v-118c0 -10 6 -16 16 -16h90c10 0 16 6 16 16v93c0 8 -3 14 -9 19l-154 121c-25 20 -35 42 -35 73v86c0 58 32 90 90 90h91c58 0 90 -32 90 -90v-112h-76v116c0 10 -6 16 -16 16h-87c-10 0 -16 -6 -16 -16v-87c0 -8 4 -14 10 -19
l152 -120c25 -20 36 -42 36 -73v-93c0 -58 -32 -90 -90 -90h-94z" />
    <glyph glyph-name="sacute" unicode="&#x15b;" horiz-adv-x="338" 
d="M135 610l54 110h82l-72 -110h-64zM122 -4c-58 0 -90 32 -90 90v114h76v-118c0 -10 6 -16 16 -16h90c10 0 16 6 16 16v93c0 8 -3 14 -9 19l-154 121c-25 20 -35 42 -35 73v86c0 58 32 90 90 90h91c58 0 90 -32 90 -90v-112h-76v116c0 10 -6 16 -16 16h-87
c-10 0 -16 -6 -16 -16v-87c0 -8 4 -14 10 -19l152 -120c25 -20 36 -42 36 -73v-93c0 -58 -32 -90 -90 -90h-94z" />
    <glyph glyph-name="scaron" unicode="&#x161;" horiz-adv-x="338" 
d="M71 720h54l42 -64l42 64h54l-54 -110h-84zM122 -4c-58 0 -90 32 -90 90v114h76v-118c0 -10 6 -16 16 -16h90c10 0 16 6 16 16v93c0 8 -3 14 -9 19l-154 121c-25 20 -35 42 -35 73v86c0 58 32 90 90 90h91c58 0 90 -32 90 -90v-112h-76v116c0 10 -6 16 -16 16h-87
c-10 0 -16 -6 -16 -16v-87c0 -8 4 -14 10 -19l152 -120c25 -20 36 -42 36 -73v-93c0 -58 -32 -90 -90 -90h-94z" />
    <glyph glyph-name="scedilla" unicode="&#x15f;" horiz-adv-x="338" 
d="M270 252c25 -20 36 -42 36 -73v-93c0 -58 -32 -90 -90 -90h-16l-23 -106h-82l40 106h-13c-58 0 -90 32 -90 90v114h76v-118c0 -10 6 -16 16 -16h90c10 0 16 6 16 16v93c0 8 -3 14 -9 19l-154 121c-25 20 -35 42 -35 73v86c0 58 32 90 90 90h91c58 0 90 -32 90 -90v-112
h-76v116c0 10 -6 16 -16 16h-87c-10 0 -16 -6 -16 -16v-87c0 -8 4 -14 10 -19z" />
    <glyph glyph-name="scircumflex" unicode="&#x15d;" horiz-adv-x="338" 
d="M71 610l54 110h84l54 -110h-54l-42 64l-42 -64h-54zM122 -4c-58 0 -90 32 -90 90v114h76v-118c0 -10 6 -16 16 -16h90c10 0 16 6 16 16v93c0 8 -3 14 -9 19l-154 121c-25 20 -35 42 -35 73v86c0 58 32 90 90 90h91c58 0 90 -32 90 -90v-112h-76v116c0 10 -6 16 -16 16
h-87c-10 0 -16 -6 -16 -16v-87c0 -8 4 -14 10 -19l152 -120c25 -20 36 -42 36 -73v-93c0 -58 -32 -90 -90 -90h-94z" />
    <glyph glyph-name="scommaaccent" unicode="&#x219;" horiz-adv-x="338" 
d="M122 -4c-58 0 -90 32 -90 90v114h76v-118c0 -10 6 -16 16 -16h90c10 0 16 6 16 16v93c0 8 -3 14 -9 19l-154 121c-25 20 -35 42 -35 73v86c0 58 32 90 90 90h91c58 0 90 -32 90 -90v-112h-76v116c0 10 -6 16 -16 16h-87c-10 0 -16 -6 -16 -16v-87c0 -8 4 -14 10 -19
l152 -120c25 -20 36 -42 36 -73v-93c0 -58 -32 -90 -90 -90h-94zM136 -194v30c19 0 31 14 31 37h-31v67h66v-59c0 -43 -20 -75 -66 -75z" />
    <glyph glyph-name="germandbls" unicode="&#xdf;" horiz-adv-x="379" 
d="M45 0v614c0 58 32 90 89 90h116c57 0 89 -32 89 -90v-177c0 -29 -7 -63 -50 -80c43 -17 50 -51 50 -80v-191c0 -58 -32 -90 -90 -90h-80v70h78c10 0 16 6 16 16v224c0 10 -6 16 -16 16h-78v70h78c10 0 16 6 16 16v210c0 10 -6 16 -16 16h-110c-10 0 -16 -6 -16 -16v-618
h-76z" />
    <glyph glyph-name="t" unicode="t" horiz-adv-x="217" 
d="M10 490v70h50v96h76v-96h76v-70h-76v-408c0 -10 6 -16 16 -16h40v-70h-42c-58 0 -90 32 -90 90v404h-50z" />
    <glyph glyph-name="tbar" unicode="&#x167;" horiz-adv-x="217" 
d="M150 -4c-58 0 -90 32 -90 90v204h-50v50h50v150h-50v70h50v96h76v-96h76v-70h-76v-150h76v-50h-76v-208c0 -10 6 -16 16 -16h40v-70h-42z" />
    <glyph glyph-name="tcaron" unicode="&#x165;" horiz-adv-x="227" 
d="M176 600v140h76l-30 -140h-46zM10 490v70h50v96h76v-96h76v-70h-76v-408c0 -10 6 -16 16 -16h40v-70h-42c-58 0 -90 32 -90 90v404h-50z" />
    <glyph glyph-name="uni0163" unicode="&#x163;" horiz-adv-x="217" 
d="M10 490v70h50v96h76v-96h76v-70h-76v-408c0 -10 6 -16 16 -16h40v-70h-31l-23 -106h-82l45 117c-27 13 -41 40 -41 79v404h-50z" />
    <glyph glyph-name="uni021B" unicode="&#x21b;" horiz-adv-x="227" 
d="M10 490v70h50v96h76v-96h76v-70h-76v-408c0 -10 6 -16 16 -16h40v-70h-42c-58 0 -90 32 -90 90v404h-50zM75 -194v30c19 0 31 14 31 37h-31v67h66v-59c0 -43 -20 -75 -66 -75z" />
    <glyph glyph-name="u" unicode="u" horiz-adv-x="349" 
d="M35 86v474h76v-478c0 -10 6 -16 16 -16h106v494h76v-560h-76v46l-40 -50h-68c-58 0 -90 32 -90 90z" />
    <glyph glyph-name="uacute" unicode="&#xfa;" horiz-adv-x="349" 
d="M140 610l54 110h82l-72 -110h-64zM35 86v474h76v-478c0 -10 6 -16 16 -16h106v494h76v-560h-76v46l-40 -50h-68c-58 0 -90 32 -90 90z" />
    <glyph glyph-name="ubreve" unicode="&#x16d;" horiz-adv-x="349" 
d="M172 610c-55 0 -100 45 -100 100h55c0 -25 20 -45 45 -45s45 20 45 45h55c0 -55 -45 -100 -100 -100zM35 86v474h76v-478c0 -10 6 -16 16 -16h106v494h76v-560h-76v46l-40 -50h-68c-58 0 -90 32 -90 90z" />
    <glyph glyph-name="ucircumflex" unicode="&#xfb;" horiz-adv-x="349" 
d="M76 610l54 110h84l54 -110h-54l-42 64l-42 -64h-54zM35 86v474h76v-478c0 -10 6 -16 16 -16h106v494h76v-560h-76v46l-40 -50h-68c-58 0 -90 32 -90 90z" />
    <glyph glyph-name="udieresis" unicode="&#xfc;" horiz-adv-x="349" 
d="M78 628v80h70v-80h-70zM196 628v80h70v-80h-70zM35 86v474h76v-478c0 -10 6 -16 16 -16h106v494h76v-560h-76v46l-40 -50h-68c-58 0 -90 32 -90 90z" />
    <glyph glyph-name="uni1EE5" unicode="&#x1ee5;" horiz-adv-x="349" 
d="M35 86v474h76v-478c0 -10 6 -16 16 -16h106v494h76v-560h-76v46l-40 -50h-68c-58 0 -90 32 -90 90zM134 -139v80h76v-80h-76z" />
    <glyph glyph-name="ugrave" unicode="&#xf9;" horiz-adv-x="349" 
d="M140 610l-72 110h82l54 -110h-64zM35 86v474h76v-478c0 -10 6 -16 16 -16h106v494h76v-560h-76v46l-40 -50h-68c-58 0 -90 32 -90 90z" />
    <glyph glyph-name="uhungarumlaut" unicode="&#x171;" horiz-adv-x="349" 
d="M95 610l44 110h74l-62 -110h-56zM193 610l44 110h74l-62 -110h-56zM35 86v474h76v-478c0 -10 6 -16 16 -16h106v494h76v-560h-76v46l-40 -50h-68c-58 0 -90 32 -90 90z" />
    <glyph glyph-name="umacron" unicode="&#x16b;" horiz-adv-x="349" 
d="M89 634v60h166v-60h-166zM35 86v474h76v-478c0 -10 6 -16 16 -16h106v494h76v-560h-76v46l-40 -50h-68c-58 0 -90 32 -90 90z" />
    <glyph glyph-name="uogonek" unicode="&#x173;" horiz-adv-x="349" 
d="M309 560v-560l-53 -105h53v-60h-54c-60 0 -70 48 -50 89l38 76h-10v46l-40 -50h-68c-58 0 -90 32 -90 90v474h76v-478c0 -10 6 -16 16 -16h106v494h76z" />
    <glyph glyph-name="uring" unicode="&#x16f;" horiz-adv-x="349" 
d="M172 610c-44 0 -80 36 -80 80s36 80 80 80s80 -36 80 -80s-36 -80 -80 -80zM172 650c22 0 40 18 40 40s-18 40 -40 40s-40 -18 -40 -40s18 -40 40 -40zM35 86v474h76v-478c0 -10 6 -16 16 -16h106v494h76v-560h-76v46l-40 -50h-68c-58 0 -90 32 -90 90z" />
    <glyph glyph-name="utilde" unicode="&#x169;" horiz-adv-x="349" 
d="M217 625c-41 0 -65 30 -96 30c-18 0 -24 -16 -24 -25h-30c0 14 1 85 60 85c41 0 65 -30 96 -30c18 0 24 16 24 25h30c0 -14 -1 -85 -60 -85zM35 86v474h76v-478c0 -10 6 -16 16 -16h106v494h76v-560h-76v46l-40 -50h-68c-58 0 -90 32 -90 90z" />
    <glyph glyph-name="v" unicode="v" horiz-adv-x="324" 
d="M7 560h80l75 -506l75 506h80l-93 -560h-124z" />
    <glyph glyph-name="w" unicode="w" horiz-adv-x="536" 
d="M7 560h76l65 -499l67 499h106l67 -499l65 499h76l-81 -560h-116l-64 478l-64 -478h-116z" />
    <glyph glyph-name="wacute" unicode="&#x1e83;" horiz-adv-x="536" 
d="M236 610l54 110h82l-72 -110h-64zM7 560h76l65 -499l67 499h106l67 -499l65 499h76l-81 -560h-116l-64 478l-64 -478h-116z" />
    <glyph glyph-name="wcircumflex" unicode="&#x175;" horiz-adv-x="536" 
d="M172 610l54 110h84l54 -110h-54l-42 64l-42 -64h-54zM7 560h76l65 -499l67 499h106l67 -499l65 499h76l-81 -560h-116l-64 478l-64 -478h-116z" />
    <glyph glyph-name="wdieresis" unicode="&#x1e85;" horiz-adv-x="536" 
d="M174 628v80h70v-80h-70zM292 628v80h70v-80h-70zM7 560h76l65 -499l67 499h106l67 -499l65 499h76l-81 -560h-116l-64 478l-64 -478h-116z" />
    <glyph glyph-name="wgrave" unicode="&#x1e81;" horiz-adv-x="536" 
d="M236 610l-72 110h82l54 -110h-64zM7 560h76l65 -499l67 499h106l67 -499l65 499h76l-81 -560h-116l-64 478l-64 -478h-116z" />
    <glyph glyph-name="x" unicode="x" horiz-adv-x="328" 
d="M10 0l107 280l-103 280h80l70 -211l70 211h80l-103 -280l107 -280h-80l-74 214l-74 -214h-80z" />
    <glyph glyph-name="y" unicode="y" horiz-adv-x="324" 
d="M7 560h80l75 -506l75 506h80l-93 -560l-27 -160h-80l29 160h-46z" />
    <glyph glyph-name="yacute" unicode="&#xfd;" horiz-adv-x="324" 
d="M130 610l54 110h82l-72 -110h-64zM7 560h80l75 -506l75 506h80l-93 -560l-27 -160h-80l29 160h-46z" />
    <glyph glyph-name="ycircumflex" unicode="&#x177;" horiz-adv-x="324" 
d="M66 610l54 110h84l54 -110h-54l-42 64l-42 -64h-54zM7 560h80l75 -506l75 506h80l-93 -560l-27 -160h-80l29 160h-46z" />
    <glyph glyph-name="ydieresis" unicode="&#xff;" horiz-adv-x="324" 
d="M68 628v80h70v-80h-70zM186 628v80h70v-80h-70zM7 560h80l75 -506l75 506h80l-93 -560l-27 -160h-80l29 160h-46z" />
    <glyph glyph-name="ygrave" unicode="&#x1ef3;" horiz-adv-x="324" 
d="M130 610l-72 110h82l54 -110h-64zM7 560h80l75 -506l75 506h80l-93 -560l-27 -160h-80l29 160h-46z" />
    <glyph glyph-name="z" unicode="z" horiz-adv-x="306" 
d="M22 0v70l182 420h-178v70h258v-70l-182 -420h182v-70h-262z" />
    <glyph glyph-name="zacute" unicode="&#x17a;" horiz-adv-x="306" 
d="M121 610l54 110h82l-72 -110h-64zM22 0v70l182 420h-178v70h258v-70l-182 -420h182v-70h-262z" />
    <glyph glyph-name="zcaron" unicode="&#x17e;" horiz-adv-x="306" 
d="M57 720h54l42 -64l42 64h54l-54 -110h-84zM22 0v70l182 420h-178v70h258v-70l-182 -420h182v-70h-262z" />
    <glyph glyph-name="zdotaccent" unicode="&#x17c;" horiz-adv-x="306" 
d="M115 628v80h76v-80h-76zM22 0v70l182 420h-178v70h258v-70l-182 -420h182v-70h-262z" />
    <glyph glyph-name="uni1E93" unicode="&#x1e93;" horiz-adv-x="306" 
d="M22 0v70l182 420h-178v70h258v-70l-182 -420h182v-70h-262zM115 -139v80h76v-80h-76z" />
    <glyph glyph-name="a.ss01" horiz-adv-x="352" 
d="M38 86v388c0 58 28 90 79 90h79l40 -50v46h76v-560h-76v46l-40 -50h-79c-51 0 -79 32 -79 90zM114 82c0 -10 6 -16 16 -16h106v428h-106c-10 0 -16 -6 -16 -16v-396z" />
    <glyph glyph-name="aacute.ss01" horiz-adv-x="352" 
d="M146 610l54 110h82l-72 -110h-64zM38 86v388c0 58 28 90 79 90h79l40 -50v46h76v-560h-76v46l-40 -50h-79c-51 0 -79 32 -79 90zM114 82c0 -10 6 -16 16 -16h106v428h-106c-10 0 -16 -6 -16 -16v-396z" />
    <glyph glyph-name="abreve.ss01" horiz-adv-x="352" 
d="M178 610c-55 0 -100 45 -100 100h55c0 -25 20 -45 45 -45s45 20 45 45h55c0 -55 -45 -100 -100 -100zM38 86v388c0 58 28 90 79 90h79l40 -50v46h76v-560h-76v46l-40 -50h-79c-51 0 -79 32 -79 90zM114 82c0 -10 6 -16 16 -16h106v428h-106c-10 0 -16 -6 -16 -16v-396z
" />
    <glyph glyph-name="uni01CE.ss01" horiz-adv-x="352" 
d="M82 720h54l42 -64l42 64h54l-54 -110h-84zM38 86v388c0 58 28 90 79 90h79l40 -50v46h76v-560h-76v46l-40 -50h-79c-51 0 -79 32 -79 90zM114 82c0 -10 6 -16 16 -16h106v428h-106c-10 0 -16 -6 -16 -16v-396z" />
    <glyph glyph-name="acircumflex.ss01" horiz-adv-x="352" 
d="M82 610l54 110h84l54 -110h-54l-42 64l-42 -64h-54zM38 86v388c0 58 28 90 79 90h79l40 -50v46h76v-560h-76v46l-40 -50h-79c-51 0 -79 32 -79 90zM114 82c0 -10 6 -16 16 -16h106v428h-106c-10 0 -16 -6 -16 -16v-396z" />
    <glyph glyph-name="adieresis.ss01" horiz-adv-x="352" 
d="M84 628v80h70v-80h-70zM202 628v80h70v-80h-70zM38 86v388c0 58 28 90 79 90h79l40 -50v46h76v-560h-76v46l-40 -50h-79c-51 0 -79 32 -79 90zM114 82c0 -10 6 -16 16 -16h106v428h-106c-10 0 -16 -6 -16 -16v-396z" />
    <glyph glyph-name="uni1EA1.ss01" horiz-adv-x="352" 
d="M38 86v388c0 58 28 90 79 90h79l40 -50v46h76v-560h-76v46l-40 -50h-79c-51 0 -79 32 -79 90zM114 82c0 -10 6 -16 16 -16h106v428h-106c-10 0 -16 -6 -16 -16v-396zM140 -139v80h76v-80h-76z" />
    <glyph glyph-name="agrave.ss01" horiz-adv-x="352" 
d="M146 610l-72 110h82l54 -110h-64zM38 86v388c0 58 28 90 79 90h79l40 -50v46h76v-560h-76v46l-40 -50h-79c-51 0 -79 32 -79 90zM114 82c0 -10 6 -16 16 -16h106v428h-106c-10 0 -16 -6 -16 -16v-396z" />
    <glyph glyph-name="amacron.ss01" horiz-adv-x="352" 
d="M95 634v60h166v-60h-166zM38 86v388c0 58 28 90 79 90h79l40 -50v46h76v-560h-76v46l-40 -50h-79c-51 0 -79 32 -79 90zM114 82c0 -10 6 -16 16 -16h106v428h-106c-10 0 -16 -6 -16 -16v-396z" />
    <glyph glyph-name="aogonek.ss01" horiz-adv-x="352" 
d="M312 560v-560l-53 -105h53v-60h-54c-60 0 -70 48 -50 89l38 76h-10v46l-40 -50h-79c-51 0 -79 32 -79 90v388c0 58 28 90 79 90h79l40 -50v46h76zM236 66v428h-106c-10 0 -16 -6 -16 -16v-396c0 -10 6 -16 16 -16h106z" />
    <glyph glyph-name="aring.ss01" horiz-adv-x="352" 
d="M178 610c-44 0 -80 36 -80 80s36 80 80 80s80 -36 80 -80s-36 -80 -80 -80zM178 650c22 0 40 18 40 40s-18 40 -40 40s-40 -18 -40 -40s18 -40 40 -40zM38 86v388c0 58 28 90 79 90h79l40 -50v46h76v-560h-76v46l-40 -50h-79c-51 0 -79 32 -79 90zM114 82
c0 -10 6 -16 16 -16h106v428h-106c-10 0 -16 -6 -16 -16v-396z" />
    <glyph glyph-name="atilde.ss01" horiz-adv-x="352" 
d="M223 625c-41 0 -65 30 -96 30c-18 0 -24 -16 -24 -25h-30c0 14 1 85 60 85c41 0 65 -30 96 -30c18 0 24 16 24 25h30c0 -14 -1 -85 -60 -85zM38 86v388c0 58 28 90 79 90h79l40 -50v46h76v-560h-76v46l-40 -50h-79c-51 0 -79 32 -79 90zM114 82c0 -10 6 -16 16 -16h106
v428h-106c-10 0 -16 -6 -16 -16v-396z" />
    <glyph glyph-name="f_f_ij" horiz-adv-x="703" 
d="M10 490v70h36v70c0 58 32 90 90 90h52v-70h-50c-10 0 -16 -6 -16 -16v-74h117v70c0 58 32 90 90 90h52v-70h-50c-10 0 -16 -6 -16 -16v-74h66v-70h-66v-490h-76v490h-117v-490h-76v490h-36zM427 640v80h76v-80h-76zM587 640v80h76v-80h-76zM427 0v560h76v-560h-76z
M529 -160v70h42c10 0 16 6 16 16v634h76v-630c0 -58 -32 -90 -90 -90h-44z" />
    <glyph glyph-name="f_i" horiz-adv-x="350" 
d="M10 490v70h36v70c0 58 32 90 90 90h52v-70h-50c-10 0 -16 -6 -16 -16v-74h66v-70h-66v-490h-76v490h-36zM234 640v80h76v-80h-76zM234 0v560h76v-560h-76z" />
    <glyph glyph-name="f_ij" horiz-adv-x="507" 
d="M10 490v70h36v70c0 58 32 90 90 90h52v-70h-50c-10 0 -16 -6 -16 -16v-74h66v-70h-66v-490h-76v490h-36zM234 640v80h76v-80h-76zM391 640v80h76v-80h-76zM234 0v560h76v-560h-76zM333 -160v70h42c10 0 16 6 16 16v634h76v-630c0 -58 -32 -90 -90 -90h-44z" />
    <glyph glyph-name="f_l" horiz-adv-x="350" 
d="M10 490v70h36v70c0 58 32 90 90 90h52v-70h-50c-10 0 -16 -6 -16 -16v-74h66v-70h-66v-490h-76v490h-36zM234 0v720h76v-720h-76z" />
    <glyph glyph-name="ordfeminine" unicode="&#xaa;" horiz-adv-x="235" 
d="M70 355c-29 0 -45 16 -45 45v76c0 33 15 54 46 64l74 25v83c0 6 -3 10 -10 10h-44c-6 0 -10 -4 -10 -10v-60h-50v71c0 29 16 45 45 45h74c29 0 45 -16 45 -45v-304h-50v31l-25 -31h-50zM85 401h60v116l-62 -21c-6 -2 -8 -6 -8 -11v-74c0 -6 4 -10 10 -10z" />
    <glyph glyph-name="ordmasculine" unicode="&#xba;" horiz-adv-x="246" 
d="M83 355c-29 0 -45 16 -45 45v259c0 29 16 45 45 45h80c29 0 45 -16 45 -45v-259c0 -29 -16 -45 -45 -45h-80zM98 401h50c6 0 10 4 10 10v237c0 6 -4 10 -10 10h-50c-6 0 -10 -4 -10 -10v-237c0 -6 4 -10 10 -10z" />
    <glyph glyph-name="uni0394" unicode="&#x394;" horiz-adv-x="421" 
d="M20 0l125 700h131l125 -700h-381zM114 76h193l-96 543z" />
    <glyph glyph-name="uni03A9" unicode="&#x3a9;" horiz-adv-x="402" 
d="M26 0v76h70l-50 69v469c0 58 32 90 90 90h130c58 0 90 -32 90 -90v-469l-50 -69h70v-76h-151v76h21l23 68c5 16 7 27 7 43v421c0 13 -7 20 -20 20h-110c-13 0 -20 -7 -20 -20v-421c0 -16 2 -27 7 -43l23 -68h21v-76h-151z" />
    <glyph glyph-name="uni03BC" unicode="&#x3bc;" horiz-adv-x="354" 
d="M40 -160v720h76v-478c0 -10 6 -16 16 -16h106v494h76v-560h-76v46l-40 -50h-82v-156h-76z" />
    <glyph glyph-name="pi" unicode="&#x3c0;" horiz-adv-x="354" 
d="M40 0v560h274v-560h-36l-40 50v440h-122v-490h-76z" />
    <glyph glyph-name="zero" unicode="0" horiz-adv-x="388" 
d="M133 -4c-58 0 -90 32 -90 90v528c0 58 32 90 90 90h122c58 0 90 -32 90 -90v-528c0 -58 -32 -90 -90 -90h-122zM143 72h102c13 0 20 7 20 20v516c0 13 -7 20 -20 20h-102c-13 0 -20 -7 -20 -20v-516c0 -13 7 -20 20 -20z" />
    <glyph glyph-name="one" unicode="1" horiz-adv-x="220" 
d="M80 0v604h-60v56l90 40h50v-700h-80z" />
    <glyph glyph-name="two" unicode="2" horiz-adv-x="352" 
d="M30 0v126c0 26 7 49 21 71l180 271c7 10 11 22 11 35v105c0 13 -7 20 -20 20h-88c-13 0 -20 -7 -20 -20v-138h-80v144c0 58 32 90 90 90h108c58 0 90 -32 90 -90v-107c0 -26 -7 -49 -21 -71l-180 -271c-7 -10 -11 -22 -11 -35v-54h212v-76h-292z" />
    <glyph glyph-name="three" unicode="3" horiz-adv-x="380" 
d="M39 86v146h80v-140c0 -13 7 -20 20 -20h98c13 0 20 7 20 20v206c0 13 -7 20 -20 20h-102v76h102c13 0 20 7 20 20v194c0 13 -7 20 -20 20h-98c-13 0 -20 -7 -20 -20v-141h-80v147c0 58 32 90 90 90h118c58 0 90 -32 90 -90v-181c0 -37 -15 -63 -55 -77
c40 -14 55 -40 55 -77v-193c0 -58 -32 -90 -90 -90h-118c-58 0 -90 32 -90 90z" />
    <glyph glyph-name="four" unicode="4" horiz-adv-x="402" 
d="M20 120v96l163 484h130v-504h69v-76h-69v-120h-80v120h-213zM94 196h139v415z" />
    <glyph glyph-name="five" unicode="5" horiz-adv-x="373" 
d="M130 -4c-58 0 -90 32 -90 90v144h80v-138c0 -13 7 -20 20 -20h98c13 0 20 7 20 20v256c0 13 -7 20 -20 20h-118v-35h-80v367h282v-76h-202v-230l40 50h88c58 0 90 -32 90 -90v-268c0 -58 -32 -90 -90 -90h-118z" />
    <glyph glyph-name="six" unicode="6" horiz-adv-x="381" 
d="M43 86v528c0 58 32 90 90 90h112c58 0 90 -32 90 -90v-126h-80v120c0 13 -7 20 -20 20h-92c-13 0 -20 -7 -20 -20v-244l40 50h88c58 0 90 -32 90 -90v-238c0 -58 -32 -90 -90 -90h-118c-58 0 -90 32 -90 90zM123 92c0 -13 7 -20 20 -20h98c13 0 20 7 20 20v226
c0 13 -7 20 -20 20h-118v-246z" />
    <glyph glyph-name="seven" unicode="7" horiz-adv-x="340" 
d="M20 624v76h300v-76l-170 -624h-80l170 624h-220z" />
    <glyph glyph-name="eight" unicode="8" horiz-adv-x="380" 
d="M129 -4c-58 0 -90 32 -90 90v196c0 37 15 63 59 77c-40 14 -55 40 -55 77v178c0 58 32 90 90 90h114c58 0 90 -32 90 -90v-178c0 -37 -15 -63 -55 -77c44 -14 59 -40 59 -77v-196c0 -58 -32 -90 -90 -90h-122zM143 397h94c13 0 20 7 20 20v191c0 13 -7 20 -20 20h-94
c-13 0 -20 -7 -20 -20v-191c0 -13 7 -20 20 -20zM139 72h102c13 0 20 7 20 20v209c0 13 -7 20 -20 20h-102c-13 0 -20 -7 -20 -20v-209c0 -13 7 -20 20 -20z" />
    <glyph glyph-name="nine" unicode="9" horiz-adv-x="381" 
d="M136 -4c-58 0 -90 32 -90 90v126h80v-120c0 -13 7 -20 20 -20h92c13 0 20 7 20 20v244l-40 -50h-88c-58 0 -90 32 -90 90v238c0 58 32 90 90 90h118c58 0 90 -32 90 -90v-528c0 -58 -32 -90 -90 -90h-112zM140 362h118v246c0 13 -7 20 -20 20h-98c-13 0 -20 -7 -20 -20
v-226c0 -13 7 -20 20 -20z" />
    <glyph glyph-name="zero.tf" horiz-adv-x="402" 
d="M140 -4c-58 0 -90 32 -90 90v528c0 58 32 90 90 90h122c58 0 90 -32 90 -90v-528c0 -58 -32 -90 -90 -90h-122zM150 72h102c13 0 20 7 20 20v516c0 13 -7 20 -20 20h-102c-13 0 -20 -7 -20 -20v-516c0 -13 7 -20 20 -20z" />
    <glyph glyph-name="one.tf" horiz-adv-x="402" 
d="M61 0v76h100v528h-81v56l111 40h50v-624h100v-76h-280z" />
    <glyph glyph-name="two.tf" horiz-adv-x="402" 
d="M55 0v126c0 26 7 49 21 71l180 271c7 10 11 22 11 35v105c0 13 -7 20 -20 20h-88c-13 0 -20 -7 -20 -20v-138h-80v144c0 58 32 90 90 90h108c58 0 90 -32 90 -90v-107c0 -26 -7 -49 -21 -71l-180 -271c-7 -10 -11 -22 -11 -35v-54h212v-76h-292z" />
    <glyph glyph-name="three.tf" horiz-adv-x="402" 
d="M54 86v146h80v-140c0 -13 7 -20 20 -20h98c13 0 20 7 20 20v206c0 13 -7 20 -20 20h-102v76h102c13 0 20 7 20 20v194c0 13 -7 20 -20 20h-98c-13 0 -20 -7 -20 -20v-141h-80v147c0 58 32 90 90 90h118c58 0 90 -32 90 -90v-181c0 -37 -15 -63 -55 -77
c40 -14 55 -40 55 -77v-193c0 -58 -32 -90 -90 -90h-118c-58 0 -90 32 -90 90z" />
    <glyph glyph-name="four.tf" horiz-adv-x="402" 
d="M20 120v96l163 484h130v-504h69v-76h-69v-120h-80v120h-213zM94 196h139v415z" />
    <glyph glyph-name="five.tf" horiz-adv-x="402" 
d="M142 -4c-58 0 -90 32 -90 90v144h80v-138c0 -13 7 -20 20 -20h98c13 0 20 7 20 20v256c0 13 -7 20 -20 20h-118v-35h-80v367h282v-76h-202v-230l40 50h88c58 0 90 -32 90 -90v-268c0 -58 -32 -90 -90 -90h-118z" />
    <glyph glyph-name="six.tf" horiz-adv-x="402" 
d="M52 86v528c0 58 32 90 90 90h112c58 0 90 -32 90 -90v-126h-80v120c0 13 -7 20 -20 20h-92c-13 0 -20 -7 -20 -20v-244l40 50h88c58 0 90 -32 90 -90v-238c0 -58 -32 -90 -90 -90h-118c-58 0 -90 32 -90 90zM132 92c0 -13 7 -20 20 -20h98c13 0 20 7 20 20v226
c0 13 -7 20 -20 20h-118v-246z" />
    <glyph glyph-name="seven.tf" horiz-adv-x="402" 
d="M51 624v76h300v-76l-170 -624h-80l170 624h-220z" />
    <glyph glyph-name="eight.tf" horiz-adv-x="402" 
d="M139 -4c-58 0 -90 32 -90 90v196c0 37 15 63 59 77c-40 14 -55 40 -55 77v178c0 58 32 90 90 90h114c58 0 90 -32 90 -90v-178c0 -37 -15 -63 -55 -77c44 -14 59 -40 59 -77v-196c0 -58 -32 -90 -90 -90h-122zM153 397h94c13 0 20 7 20 20v191c0 13 -7 20 -20 20h-94
c-13 0 -20 -7 -20 -20v-191c0 -13 7 -20 20 -20zM149 72h102c13 0 20 7 20 20v209c0 13 -7 20 -20 20h-102c-13 0 -20 -7 -20 -20v-209c0 -13 7 -20 20 -20z" />
    <glyph glyph-name="nine.tf" horiz-adv-x="402" 
d="M148 -4c-58 0 -90 32 -90 90v126h80v-120c0 -13 7 -20 20 -20h92c13 0 20 7 20 20v244l-40 -50h-88c-58 0 -90 32 -90 90v238c0 58 32 90 90 90h118c58 0 90 -32 90 -90v-528c0 -58 -32 -90 -90 -90h-112zM152 362h118v246c0 13 -7 20 -20 20h-98c-13 0 -20 -7 -20 -20
v-226c0 -13 7 -20 20 -20z" />
    <glyph glyph-name="uni00B9" unicode="&#xb9;" horiz-adv-x="160" 
d="M20 644v32l45 24h35v-345h-50v289h-30z" />
    <glyph glyph-name="uni00B2" unicode="&#xb2;" horiz-adv-x="206" 
d="M30 357v64c0 12 3 21 9 32l82 137c4 6 5 13 5 20v38c0 6 -4 10 -10 10h-24c-6 0 -10 -4 -10 -10v-56h-50v67c0 29 16 45 45 45h54c29 0 45 -16 45 -45v-49c0 -12 -3 -21 -9 -32l-82 -138c-4 -6 -5 -13 -5 -20v-17h96v-46h-146z" />
    <glyph glyph-name="uni00B3" unicode="&#xb3;" horiz-adv-x="242" 
d="M84 355c-29 0 -45 16 -45 45v66h50v-55c0 -6 4 -10 10 -10h40c6 0 10 4 10 10v94c0 6 -4 10 -10 10h-40v46h40c6 0 10 4 10 10v77c0 6 -4 10 -10 10h-40c-6 0 -10 -4 -10 -10v-51h-50v62c0 29 16 45 45 45h70c29 0 45 -16 45 -45v-83c0 -18 -8 -31 -28 -38
c20 -7 28 -21 28 -39v-99c0 -29 -16 -45 -45 -45h-70z" />
    <glyph glyph-name="fraction" unicode="&#x2044;" horiz-adv-x="372" 
d="M-5 0l300 700h82l-300 -700h-82z" />
    <glyph glyph-name="asterisk" unicode="*" horiz-adv-x="350" 
d="M150 440v86l-75 -43l-25 44l74 43l-74 43l25 44l75 -43v86h50v-86l75 43l25 -44l-74 -43l74 -43l-25 -44l-75 43v-86h-50z" />
    <glyph glyph-name="backslash" unicode="\" horiz-adv-x="258" 
d="M160 -140l-140 914h78l140 -914h-78z" />
    <glyph glyph-name="periodcentered" unicode="&#xb7;" horiz-adv-x="138" 
d="M40 220v110h78v-110h-78z" />
    <glyph glyph-name="bullet" unicode="&#x2022;" horiz-adv-x="330" 
d="M150 260c-39 0 -60 21 -60 60v60c0 39 21 60 60 60h30c39 0 60 -21 60 -60v-60c0 -39 -21 -60 -60 -60h-30z" />
    <glyph glyph-name="colon" unicode=":" horiz-adv-x="150" 
d="M36 340v110h78v-110h-78zM36 0v110h78v-110h-78z" />
    <glyph glyph-name="comma" unicode="," horiz-adv-x="150" 
d="M36 -80v36c22 0 36 16 36 44h-36v110h78v-100c0 -52 -24 -90 -78 -90z" />
    <glyph glyph-name="ellipsis" unicode="&#x2026;" horiz-adv-x="450" 
d="M36 0v110h78v-110h-78zM186 0v110h78v-110h-78zM336 0v110h78v-110h-78z" />
    <glyph glyph-name="exclam" unicode="!" horiz-adv-x="178" 
d="M50 160v540h78v-540h-78zM50 0v110h78v-110h-78z" />
    <glyph glyph-name="exclamdown" unicode="&#xa1;" horiz-adv-x="178" 
d="M128 540v-110h-78v110h78zM128 380v-540h-78v540h78z" />
    <glyph glyph-name="numbersign" unicode="#" horiz-adv-x="511" 
d="M30 190v72h92l21 176h-82v72h91l24 190h76l-24 -190h94l24 190h76l-24 -190h83v-72h-92l-21 -176h82v-72h-91l-24 -190h-76l24 190h-94l-24 -190h-76l24 190h-83zM198 262h94l21 176h-94z" />
    <glyph glyph-name="period" unicode="." horiz-adv-x="150" 
d="M36 0v110h78v-110h-78z" />
    <glyph glyph-name="question" unicode="?" horiz-adv-x="348" 
d="M119 160v126c0 41 13 70 44 98l58 51c12 11 17 22 17 37v136c0 13 -7 20 -20 20h-88c-13 0 -20 -7 -20 -20v-128h-80v134c0 58 32 90 90 90h108c58 0 90 -32 90 -90v-136c0 -41 -14 -71 -45 -98l-63 -55c-12 -11 -17 -22 -17 -37v-128h-74zM117 0v110h78v-110h-78z" />
    <glyph glyph-name="questiondown" unicode="&#xbf;" horiz-adv-x="348" 
d="M231 544v-110h-78v110h78zM229 384v-126c0 -41 -13 -70 -44 -98l-58 -51c-12 -11 -17 -22 -17 -37v-136c0 -13 7 -20 20 -20h88c13 0 20 7 20 20v128h80v-134c0 -58 -32 -90 -90 -90h-108c-58 0 -90 32 -90 90v136c0 41 14 71 45 98l63 55c12 11 17 22 17 37v128h74z" />
    <glyph glyph-name="quotedbl" unicode="&#x22;" horiz-adv-x="244" 
d="M32 520l-10 200h80l-10 -200h-60zM152 520l-10 200h80l-10 -200h-60z" />
    <glyph glyph-name="quotesingle" unicode="'" horiz-adv-x="124" 
d="M32 520l-10 200h80l-10 -200h-60z" />
    <glyph glyph-name="semicolon" unicode=";" horiz-adv-x="150" 
d="M36 340v110h78v-110h-78zM36 -80v36c22 0 36 16 36 44h-36v110h78v-100c0 -52 -24 -90 -78 -90z" />
    <glyph glyph-name="slash" unicode="/" horiz-adv-x="258" 
d="M20 -140l140 914h78l-140 -914h-78z" />
    <glyph glyph-name="underscore" unicode="_" horiz-adv-x="360" 
d="M20 -104v64h320v-64h-320z" />
    <glyph glyph-name="braceleft" unicode="{" horiz-adv-x="241" 
d="M199 -140l-78 102c-27 35 -38 67 -38 111v183c0 13 -7 20 -20 20h-48v74h48c13 0 20 7 20 20v183c0 44 11 76 38 111l78 102l52 -40l-63 -92c-19 -28 -27 -53 -27 -87v-147c0 -46 -9 -73 -50 -87c41 -14 50 -41 50 -87v-147c0 -34 8 -59 27 -87l63 -92z" />
    <glyph glyph-name="braceright" unicode="}" horiz-adv-x="241" 
d="M42 -140l-52 40l63 92c19 28 27 53 27 87v147c0 46 9 73 50 87c-41 14 -50 41 -50 87v147c0 34 -8 59 -27 87l-63 92l52 40l78 -102c27 -35 38 -67 38 -111v-183c0 -13 7 -20 20 -20h48v-74h-48c-13 0 -20 -7 -20 -20v-183c0 -44 -11 -76 -38 -111z" />
    <glyph glyph-name="bracketleft" unicode="[" horiz-adv-x="208" 
d="M50 -140v914h168v-73h-90v-768h90v-73h-168z" />
    <glyph glyph-name="bracketright" unicode="]" horiz-adv-x="208" 
d="M-10 -140v73h90v768h-90v73h168v-914h-168z" />
    <glyph glyph-name="parenleft" unicode="(" horiz-adv-x="203" 
d="M166 -140l-78 102c-27 35 -38 67 -38 111v480c0 44 11 76 38 111l78 102l52 -40l-63 -92c-19 -28 -27 -53 -27 -87v-468c0 -34 8 -59 27 -87l63 -92z" />
    <glyph glyph-name="parenright" unicode=")" horiz-adv-x="203" 
d="M37 -140l-52 40l63 92c19 28 27 53 27 87v468c0 34 -8 59 -27 87l-63 92l52 40l78 -102c27 -35 38 -67 38 -111v-480c0 -44 -11 -76 -38 -111z" />
    <glyph glyph-name="emdash" unicode="&#x2014;" horiz-adv-x="640" 
d="M0 241v70h640v-70h-640z" />
    <glyph glyph-name="endash" unicode="&#x2013;" horiz-adv-x="320" 
d="M0 241v70h320v-70h-320z" />
    <glyph glyph-name="hyphen" unicode="-" horiz-adv-x="220" 
d="M10 241v70h200v-70h-200z" />
    <glyph glyph-name="uni00AD" unicode="&#xad;" horiz-adv-x="220" 
d="M10 241v70h200v-70h-200z" />
    <glyph glyph-name="guillemotleft" unicode="&#xab;" horiz-adv-x="354" 
d="M10 300l110 180h84l-110 -180l110 -180h-84zM140 300l110 180h84l-110 -180l110 -180h-84z" />
    <glyph glyph-name="guillemotright" unicode="&#xbb;" horiz-adv-x="354" 
d="M20 120l110 180l-110 180h84l110 -180l-110 -180h-84zM150 120l110 180l-110 180h84l110 -180l-110 -180h-84z" />
    <glyph glyph-name="guilsinglleft" unicode="&#x2039;" horiz-adv-x="224" 
d="M10 300l110 180h84l-110 -180l110 -180h-84z" />
    <glyph glyph-name="guilsinglright" unicode="&#x203a;" horiz-adv-x="224" 
d="M20 120l110 180l-110 180h84l110 -180l-110 -180h-84z" />
    <glyph glyph-name="quotedblbase" unicode="&#x201e;" horiz-adv-x="238" 
d="M21 -80v36c22 0 36 16 36 44h-36v110h78v-100c0 -52 -24 -90 -78 -90zM139 -80v36c22 0 36 16 36 44h-36v110h78v-100c0 -52 -24 -90 -78 -90z" />
    <glyph glyph-name="quotedblleft" unicode="&#x201c;" horiz-adv-x="238" 
d="M99 700v-36c-22 0 -36 -16 -36 -44h36v-110h-78v100c0 52 24 90 78 90zM217 700v-36c-22 0 -36 -16 -36 -44h36v-110h-78v100c0 52 24 90 78 90z" />
    <glyph glyph-name="quotedblright" unicode="&#x201d;" horiz-adv-x="238" 
d="M21 510v36c22 0 36 16 36 44h-36v110h78v-100c0 -52 -24 -90 -78 -90zM139 510v36c22 0 36 16 36 44h-36v110h78v-100c0 -52 -24 -90 -78 -90z" />
    <glyph glyph-name="quoteleft" unicode="&#x2018;" horiz-adv-x="120" 
d="M99 700v-36c-22 0 -36 -16 -36 -44h36v-110h-78v100c0 52 24 90 78 90z" />
    <glyph glyph-name="quoteright" unicode="&#x2019;" horiz-adv-x="120" 
d="M21 510v36c22 0 36 16 36 44h-36v110h78v-100c0 -52 -24 -90 -78 -90z" />
    <glyph glyph-name="quotesinglbase" unicode="&#x201a;" horiz-adv-x="120" 
d="M21 -80v36c22 0 36 16 36 44h-36v110h78v-100c0 -52 -24 -90 -78 -90z" />
    <glyph glyph-name="space" unicode=" " horiz-adv-x="128" 
 />
    <glyph glyph-name="uni00A0" unicode="&#xa0;" horiz-adv-x="128" 
 />
    <glyph glyph-name="cent" unicode="&#xa2;" horiz-adv-x="347" 
d="M38 180v340c0 58 32 90 90 90h13v90h68v-90h13c58 0 90 -32 90 -90v-95h-76v99c0 10 -6 16 -16 16h-90c-10 0 -16 -6 -16 -16v-348c0 -10 6 -16 16 -16h90c10 0 16 6 16 16v99h76v-95c0 -58 -32 -90 -90 -90h-13v-90h-68v90h-13c-58 0 -90 32 -90 90z" />
    <glyph glyph-name="currency" unicode="&#xa4;" horiz-adv-x="486" 
d="M45 206l66 66c-2 9 -3 19 -3 30v172c0 11 1 21 3 30l-66 66l54 54l65 -65c10 3 21 5 34 5h90c13 0 24 -2 34 -5l65 65l54 -54l-66 -66c2 -9 3 -19 3 -30v-172c0 -11 -1 -21 -3 -30l66 -66l-54 -54l-65 65c-10 -3 -21 -5 -34 -5h-90c-13 0 -24 2 -34 5l-65 -65zM200 282
h86c10 0 16 6 16 16v180c0 10 -6 16 -16 16h-86c-10 0 -16 -6 -16 -16v-180c0 -10 6 -16 16 -16z" />
    <glyph glyph-name="dollar" unicode="$" horiz-adv-x="372" 
d="M38 86v174h80v-168c0 -13 7 -20 20 -20h96c13 0 20 7 20 20v155c0 10 -3 17 -12 24l-164 119c-26 19 -37 41 -37 73v151c0 58 32 90 90 90h19v92h72v-92h19c58 0 90 -32 90 -90v-164h-80v158c0 13 -7 20 -20 20h-90c-13 0 -20 -7 -20 -20v-137c0 -10 3 -17 12 -24
l164 -118c26 -19 37 -41 37 -73v-170c0 -58 -32 -90 -90 -90h-22v-92h-72v92h-22c-58 0 -90 32 -90 90z" />
    <glyph glyph-name="Euro" unicode="&#x20ac;" horiz-adv-x="424" 
d="M30 254v60h60v72h-60v60h60v168c0 58 32 90 90 90h116c58 0 90 -32 90 -90v-98h-80v92c0 13 -7 20 -20 20h-96c-13 0 -20 -7 -20 -20v-162h136v-60h-136v-72h136v-60h-136v-162c0 -13 7 -20 20 -20h96c13 0 20 7 20 20v92h80v-98c0 -58 -32 -90 -90 -90h-116
c-58 0 -90 32 -90 90v168h-60z" />
    <glyph glyph-name="florin" unicode="&#x192;" horiz-adv-x="214" 
d="M-2 -160v70h42c10 0 16 6 16 16v564h-46v70h46v70c0 58 32 90 90 90h62v-70h-60c-10 0 -16 -6 -16 -16v-74h76v-70h-76v-560c0 -58 -32 -90 -90 -90h-44z" />
    <glyph glyph-name="sterling" unicode="&#xa3;" horiz-adv-x="409" 
d="M35 0v76h42v184h-42v76h42v278c0 58 32 90 90 90h116c58 0 90 -32 90 -90v-130h-80v124c0 13 -7 20 -20 20h-96c-13 0 -20 -7 -20 -20v-272h132v-76h-132v-144l-50 -40h272v-76h-344z" />
    <glyph glyph-name="yen" unicode="&#xa5;" horiz-adv-x="360" 
d="M10 700h79l91 -322l90 322h80l-113 -390h73v-60h-90v-72h90v-60h-90v-118h-80v118h-90v60h90v72h-90v60h73z" />
    <glyph glyph-name="uni2219" unicode="&#x2219;" horiz-adv-x="340" 
d="M150 260c-39 0 -60 21 -60 60v60c0 39 21 60 60 60h30c39 0 60 -21 60 -60v-60c0 -39 -21 -60 -60 -60h-30z" />
    <glyph glyph-name="uni2215" unicode="&#x2215;" horiz-adv-x="372" 
d="M-5 0l300 700h82l-300 -700h-82z" />
    <glyph glyph-name="plus" unicode="+" horiz-adv-x="400" 
d="M30 311v76h132v132h76v-132h132v-76h-132v-132h-76v132h-132z" />
    <glyph glyph-name="minus" unicode="&#x2212;" horiz-adv-x="400" 
d="M30 311v76h340v-76h-340z" />
    <glyph glyph-name="multiply" unicode="&#xd7;" horiz-adv-x="402" 
d="M40 242l107 107l-107 107l54 54l107 -107l107 107l54 -54l-107 -107l107 -107l-54 -54l-107 107l-107 -107z" />
    <glyph glyph-name="divide" unicode="&#xf7;" horiz-adv-x="400" 
d="M162 437v76h76v-76h-76zM30 311v76h340v-76h-340zM162 185v76h76v-76h-76z" />
    <glyph glyph-name="equal" unicode="=" horiz-adv-x="400" 
d="M30 389v76h340v-76h-340zM30 233v76h340v-76h-340z" />
    <glyph glyph-name="notequal" unicode="&#x2260;" horiz-adv-x="400" 
d="M30 233v76h122l32 80h-154v76h183l37 94h64l-37 -94h93v-76h-122l-32 -80h154v-76h-183l-37 -94h-64l37 94h-93z" />
    <glyph glyph-name="greater" unicode="&#x3e;" horiz-adv-x="300" 
d="M40 160v86l184 104l-184 104v86l230 -130v-120z" />
    <glyph glyph-name="less" unicode="&#x3c;" horiz-adv-x="300" 
d="M30 290v120l230 130v-86l-184 -104l184 -104v-86z" />
    <glyph glyph-name="greaterequal" unicode="&#x2265;" horiz-adv-x="340" 
d="M40 260v78l199 84l-199 84v78l260 -110v-104zM40 144v72h260v-72h-260z" />
    <glyph glyph-name="lessequal" unicode="&#x2264;" horiz-adv-x="340" 
d="M40 370v104l260 110v-78l-199 -84l199 -84v-78zM40 144v72h260v-72h-260z" />
    <glyph glyph-name="plusminus" unicode="&#xb1;" horiz-adv-x="400" 
d="M30 149v70h132v112h-132v76h132v132h76v-132h132v-76h-132v-112h132v-70h-340z" />
    <glyph glyph-name="approxequal" unicode="&#x2248;" horiz-adv-x="398" 
d="M276 369c-71 0 -107 52 -148 52c-38 0 -42 -34 -42 -43h-56c0 44 17 121 92 121c71 0 107 -52 148 -52c38 0 42 34 42 43h56c0 -44 -17 -121 -92 -121zM276 199c-71 0 -107 52 -148 52c-38 0 -42 -34 -42 -43h-56c0 44 17 121 92 121c71 0 107 -52 148 -52
c38 0 42 34 42 43h56c0 -44 -17 -121 -92 -121z" />
    <glyph glyph-name="asciitilde" unicode="~" horiz-adv-x="398" 
d="M276 225c-71 0 -107 52 -148 52c-38 0 -42 -34 -42 -43h-56c0 44 17 121 92 121c71 0 107 -52 148 -52c38 0 42 34 42 43h56c0 -44 -17 -121 -92 -121z" />
    <glyph glyph-name="logicalnot" unicode="&#xac;" horiz-adv-x="410" 
d="M30 317v76h340v-182h-80v106h-260z" />
    <glyph glyph-name="infinity" unicode="&#x221e;" horiz-adv-x="690" 
d="M40 310c0 83 67 150 150 150c77 0 120 -43 155 -92c35 49 78 92 155 92c83 0 150 -67 150 -150s-67 -150 -150 -150c-77 0 -120 43 -155 92c-35 -49 -78 -92 -155 -92c-83 0 -150 67 -150 150zM110 310c0 -44 36 -80 80 -80c54 0 86 36 116 80c-30 44 -62 80 -116 80
c-44 0 -80 -36 -80 -80zM384 310c30 -44 62 -80 116 -80c44 0 80 36 80 80s-36 80 -80 80c-54 0 -86 -36 -116 -80z" />
    <glyph glyph-name="integral" unicode="&#x222b;" horiz-adv-x="199" 
d="M-17 -160v70h42c10 0 16 6 16 16v704c0 58 32 90 90 90h62v-70h-60c-10 0 -16 -6 -16 -16v-704c0 -58 -32 -90 -90 -90h-44z" />
    <glyph glyph-name="uni2126" unicode="&#x2126;" horiz-adv-x="402" 
d="M26 0v76h70l-50 69v469c0 58 32 90 90 90h130c58 0 90 -32 90 -90v-469l-50 -69h70v-76h-151v76h21l23 68c5 16 7 27 7 43v421c0 13 -7 20 -20 20h-110c-13 0 -20 -7 -20 -20v-421c0 -16 2 -27 7 -43l23 -68h21v-76h-151z" />
    <glyph glyph-name="uni2206" unicode="&#x2206;" horiz-adv-x="421" 
d="M20 0l125 700h131l125 -700h-381zM114 76h193l-96 543z" />
    <glyph glyph-name="product" unicode="&#x220f;" horiz-adv-x="410" 
d="M45 -120v820h320v-820h-80v744h-160v-744h-80z" />
    <glyph glyph-name="summation" unicode="&#x2211;" horiz-adv-x="370" 
d="M30 -120v76l181 334l-181 334v76h310v-76h-226l185 -334l-185 -334h226v-76h-310z" />
    <glyph glyph-name="radical" unicode="&#x221a;" horiz-adv-x="505" 
d="M15 244v76h150l87 -403l173 783h80l-181 -820h-144l-79 364h-86z" />
    <glyph glyph-name="partialdiff" unicode="&#x2202;" horiz-adv-x="379" 
d="M128 -4c-58 0 -90 32 -90 90v288c0 58 32 90 90 90h88l40 -50v90c0 84 -46 130 -130 130h-22v76h12c143 0 220 -77 220 -220v-404c0 -58 -32 -90 -90 -90h-118zM138 72h98c13 0 20 7 20 20v296h-118c-13 0 -20 -7 -20 -20v-276c0 -13 7 -20 20 -20z" />
    <glyph glyph-name="uni00B5" unicode="&#xb5;" horiz-adv-x="354" 
d="M40 -160v720h76v-478c0 -10 6 -16 16 -16h106v494h76v-560h-76v46l-40 -50h-82v-156h-76z" />
    <glyph glyph-name="percent" unicode="%" horiz-adv-x="490" 
d="M110 394c-52 0 -80 28 -80 80v150c0 52 28 80 80 80h30c52 0 80 -28 80 -80v-150c0 -52 -28 -80 -80 -80h-30zM60 0l300 700h70l-300 -700h-70zM111 454h28c9 0 15 6 15 15v160c0 9 -6 15 -15 15h-28c-9 0 -15 -6 -15 -15v-160c0 -9 6 -15 15 -15zM350 -4
c-52 0 -80 28 -80 80v150c0 52 28 80 80 80h30c52 0 80 -28 80 -80v-150c0 -52 -28 -80 -80 -80h-30zM351 56h28c9 0 15 6 15 15v160c0 9 -6 15 -15 15h-28c-9 0 -15 -6 -15 -15v-160c0 -9 6 -15 15 -15z" />
    <glyph glyph-name="perthousand" unicode="&#x2030;" horiz-adv-x="704" 
d="M110 394c-52 0 -80 28 -80 80v150c0 52 28 80 80 80h30c52 0 80 -28 80 -80v-150c0 -52 -28 -80 -80 -80h-30zM60 0l300 700h70l-300 -700h-70zM111 454h28c9 0 15 6 15 15v160c0 9 -6 15 -15 15h-28c-9 0 -15 -6 -15 -15v-160c0 -9 6 -15 15 -15zM350 -4
c-52 0 -80 28 -80 80v150c0 52 28 80 80 80h30c52 0 80 -28 80 -80v-150c0 -52 -28 -80 -80 -80h-30zM574 -4c-52 0 -80 28 -80 80v150c0 52 28 80 80 80h30c52 0 80 -28 80 -80v-150c0 -52 -28 -80 -80 -80h-30zM351 56h28c9 0 15 6 15 15v160c0 9 -6 15 -15 15h-28
c-9 0 -15 -6 -15 -15v-160c0 -9 6 -15 15 -15zM575 56h28c9 0 15 6 15 15v160c0 9 -6 15 -15 15h-28c-9 0 -15 -6 -15 -15v-160c0 -9 6 -15 15 -15z" />
    <glyph glyph-name="lozenge" unicode="&#x25ca;" horiz-adv-x="535" 
d="M60 270l141 430h133l141 -430l-141 -430h-133zM140 270l128 -389l127 389l-127 389z" />
    <glyph glyph-name="at" unicode="@" horiz-adv-x="560" 
d="M45 125v394c0 120 65 185 185 185h96c120 0 185 -65 185 -185v-384c0 -47 -18 -85 -86 -85c-52 0 -75 22 -83 54l-38 -48h-84c-51 0 -79 32 -79 90v352c0 58 28 90 79 90h79l40 -50v46h76v-449c0 -18 5 -43 33 -43s33 25 33 43v389c0 97 -53 150 -150 150h-106
c-97 0 -150 -53 -150 -150v-404c0 -97 53 -150 150 -150h223v-30h-218c-120 0 -185 65 -185 185zM217 142c0 -10 6 -16 16 -16h106v9v383h-106c-10 0 -16 -6 -16 -16v-360z" />
    <glyph glyph-name="ampersand" unicode="&#x26;" horiz-adv-x="401" 
d="M133 -4c-58 0 -90 32 -90 90v206c0 37 15 63 55 77c-40 14 -55 40 -55 77v168c0 58 32 90 90 90h116c58 0 90 -32 90 -90v-126h-80v120c0 13 -7 20 -20 20h-96c-13 0 -20 -7 -20 -20v-181c0 -13 7 -20 20 -20h238v-76h-42v-331h-80v46l-40 -50h-86zM143 72h116v259h-116
c-13 0 -20 -7 -20 -20v-219c0 -13 7 -20 20 -20z" />
    <glyph glyph-name="paragraph" unicode="&#xb6;" horiz-adv-x="403" 
d="M188 0v360h-60c-58 0 -90 32 -90 90v160c0 58 32 90 90 90h120v-700h-60zM298 0v700h60v-700h-60z" />
    <glyph glyph-name="section" unicode="&#xa7;" horiz-adv-x="351" 
d="M313 162l-76 60v93c0 8 -3 14 -9 19l-154 121c-25 20 -35 42 -35 73v86c0 58 32 90 90 90h91c58 0 90 -32 90 -90v-112h-76v116c0 10 -6 16 -16 16h-87c-10 0 -16 -6 -16 -16v-87c0 -8 4 -14 10 -19l152 -120c25 -20 36 -42 36 -73v-157zM131 -122c-58 0 -90 32 -90 90
v112h76v-116c0 -10 6 -16 16 -16h87c10 0 16 6 16 16v87c0 8 -4 14 -10 19l-152 120c-25 20 -36 42 -36 73v157l76 -60v-93c0 -8 3 -14 9 -19l154 -121c25 -20 35 -42 35 -73v-86c0 -58 -32 -90 -90 -90h-91z" />
    <glyph glyph-name="copyright" unicode="&#xa9;" horiz-adv-x="500" 
d="M235 -4c-120 0 -185 65 -185 185v338c0 120 65 185 185 185h30c120 0 185 -65 185 -185v-338c0 -120 -65 -185 -185 -185h-30zM230 26h40c97 0 150 53 150 150v348c0 97 -53 150 -150 150h-40c-97 0 -150 -53 -150 -150v-348c0 -97 53 -150 150 -150zM209 102
c-41 0 -63 23 -63 63v370c0 40 22 63 63 63h82c41 0 63 -23 63 -63v-123h-56v120c0 9 -5 14 -14 14h-68c-9 0 -14 -5 -14 -14v-364c0 -9 5 -14 14 -14h68c9 0 14 5 14 14v120h56v-123c0 -40 -22 -63 -63 -63h-82z" />
    <glyph glyph-name="registered" unicode="&#xae;" horiz-adv-x="500" 
d="M50 181v338c0 120 65 185 185 185h30c120 0 185 -65 185 -185v-338c0 -120 -65 -185 -185 -185h-30c-120 0 -185 65 -185 185zM80 176c0 -97 53 -150 150 -150h40c97 0 150 53 150 150v348c0 97 -53 150 -150 150h-40c-97 0 -150 -53 -150 -150v-348zM148 105v490h141
c40 0 63 -22 63 -63v-160c0 -35 -16 -56 -46 -61l46 -206h-56l-45 204h-47v-204h-56zM204 361h78c9 0 14 5 14 14v154c0 9 -5 14 -14 14h-78v-182z" />
    <glyph glyph-name="trademark" unicode="&#x2122;" horiz-adv-x="588" 
d="M40 650v50h192v-50h-70v-330h-52v330h-70zM262 320v380h88l45 -317l45 317h88v-380h-52v304l-48 -304h-66l-48 304v-304h-52z" />
    <glyph glyph-name="degree" unicode="&#xb0;" horiz-adv-x="266" 
d="M110 414c-45 0 -70 25 -70 70v156c0 45 25 70 70 70h46c45 0 70 -25 70 -70v-156c0 -45 -25 -70 -70 -70h-46zM113 468h40c9 0 15 6 15 15v158c0 9 -6 15 -15 15h-40c-9 0 -15 -6 -15 -15v-158c0 -9 6 -15 15 -15z" />
    <glyph glyph-name="bar" unicode="|" horiz-adv-x="278" 
d="M100 -140v914h78v-914h-78z" />
    <glyph glyph-name="brokenbar" unicode="&#xa6;" horiz-adv-x="238" 
d="M80 390v384h78v-384h-78zM80 -140v384h78v-384h-78z" />
    <glyph glyph-name="dagger" unicode="&#x2020;" horiz-adv-x="280" 
d="M20 526v64h85v110h70v-110h85v-64h-85v-256h-70v256h-85z" />
    <glyph glyph-name="daggerdbl" unicode="&#x2021;" horiz-adv-x="280" 
d="M20 205v64h85v257h-85v64h85v110h70v-110h85v-64h-85v-257h85v-64h-85v-110h-70v110h-85z" />
    <glyph glyph-name="estimated" unicode="&#x212e;" horiz-adv-x="770" 
d="M385 -6c-185 0 -335 135 -335 301c0 167 150 302 335 302s335 -135 335 -302v-7h-543c-3 0 -5 -1 -5 -4v-164c0 -8 4 -14 8 -19c51 -55 125 -89 206 -89c86 0 164 39 215 99h49c-60 -70 -158 -117 -265 -117zM177 304h416c3 0 5 2 5 5v165c0 8 -4 15 -9 20
c-52 52 -124 85 -203 85c-81 0 -152 -35 -205 -88c-5 -5 -9 -12 -9 -20v-162c0 -3 2 -5 5 -5z" />
    <glyph glyph-name="uni2116" unicode="&#x2116;" horiz-adv-x="693" 
d="M505 272c-58 0 -90 32 -90 90v252c0 58 32 90 90 90h60c58 0 90 -32 90 -90v-252c0 -58 -27 -90 -90 -90h-60zM45 0v700h80l150 -354v354h80v-700h-80v162l-150 354v-516h-80zM507 342h56c10 0 16 6 16 16v260c0 10 -6 16 -16 16h-56c-10 0 -16 -6 -16 -16v-260
c0 -10 6 -16 16 -16zM440 142v70h190v-70h-190z" />
    <glyph glyph-name="asciicircum" unicode="^" horiz-adv-x="404" 
d="M40 410l110 290h104l110 -290h-78l-84 221l-84 -221h-78z" />
    <glyph glyph-name="uni0308" unicode="&#x308;" 
d="M-234 628v80h70v-80h-70zM-116 628v80h70v-80h-70z" />
    <glyph glyph-name="uni0307" unicode="&#x307;" 
d="M-116 628v80h76v-80h-76z" />
    <glyph glyph-name="gravecomb" unicode="&#x300;" 
d="M-124 610l-72 110h82l54 -110h-64z" />
    <glyph glyph-name="acutecomb" unicode="&#x301;" 
d="M-124 610l54 110h82l-72 -110h-64z" />
    <glyph glyph-name="uni030B" unicode="&#x30b;" 
d="M-194 610l44 110h74l-62 -110h-56zM-96 610l44 110h74l-62 -110h-56z" />
    <glyph glyph-name="uni0302" unicode="&#x302;" 
d="M-232 610l54 110h84l54 -110h-54l-42 64l-42 -64h-54z" />
    <glyph glyph-name="uni030C" unicode="&#x30c;" 
d="M-232 720h54l42 -64l42 64h54l-54 -110h-84z" />
    <glyph glyph-name="uni0306" unicode="&#x306;" 
d="M-140 610c-55 0 -100 45 -100 100h55c0 -25 20 -45 45 -45s45 20 45 45h55c0 -55 -45 -100 -100 -100z" />
    <glyph glyph-name="uni030A" unicode="&#x30a;" 
d="M-120 610c-44 0 -80 36 -80 80s36 80 80 80s80 -36 80 -80s-36 -80 -80 -80zM-120 650c22 0 40 18 40 40s-18 40 -40 40s-40 -18 -40 -40s18 -40 40 -40z" />
    <glyph glyph-name="tildecomb" unicode="&#x303;" 
d="M-100 625c-41 0 -65 30 -96 30c-18 0 -24 -16 -24 -25h-30c0 14 1 85 60 85c41 0 65 -30 96 -30c18 0 24 16 24 25h30c0 -14 -1 -85 -60 -85z" />
    <glyph glyph-name="uni0304" unicode="&#x304;" 
d="M-206 634v60h166v-60h-166z" />
    <glyph glyph-name="uni0312" unicode="&#x312;" 
d="M-106 610v59c0 43 20 75 66 75v-30c-19 0 -31 -14 -31 -37h31v-67h-66z" />
    <glyph glyph-name="dotbelowcomb" unicode="&#x323;" 
d="M-116 -139v80h76v-80h-76z" />
    <glyph glyph-name="uni0326" unicode="&#x326;" 
d="M-106 -194v30c19 0 31 14 31 37h-31v67h66v-59c0 -43 -20 -75 -66 -75z" />
    <glyph glyph-name="uni0327" unicode="&#x327;" 
d="M-146 -110l42 110h64l-24 -110h-82z" />
    <glyph glyph-name="uni0328" unicode="&#x328;" 
d="M-94 -165c-60 0 -70 48 -50 89l38 76h66l-53 -105h53v-60h-54z" />
    <glyph glyph-name="uni0308.case" 
d="M-234 774v80h70v-80h-70zM-116 774v80h70v-80h-70z" />
    <glyph glyph-name="uni0307.case" 
d="M-116 774v80h76v-80h-76z" />
    <glyph glyph-name="gravecomb.case" 
d="M-114 774l-72 110h82l54 -110h-64z" />
    <glyph glyph-name="acutecomb.case" 
d="M-114 774l54 110h82l-72 -110h-64z" />
    <glyph glyph-name="uni030B.case" 
d="M-193 774l44 110h74l-62 -110h-56zM-95 774l44 110h74l-62 -110h-56z" />
    <glyph glyph-name="uni0302.case" 
d="M-232 774l54 110h84l54 -110h-54l-42 64l-42 -64h-54z" />
    <glyph glyph-name="uni030C.case" 
d="M-232 884h54l42 -64l42 64h54l-54 -110h-84z" />
    <glyph glyph-name="uni0306.case" 
d="M-140 770c-55 0 -100 45 -100 100h50c0 -28 22 -50 50 -50s50 22 50 50h50c0 -55 -45 -100 -100 -100z" />
    <glyph glyph-name="uni030A.case" 
d="M-120 770c-44 0 -80 36 -80 80s36 80 80 80s80 -36 80 -80s-36 -80 -80 -80zM-120 810c22 0 40 18 40 40s-18 40 -40 40s-40 -18 -40 -40s18 -40 40 -40z" />
    <glyph glyph-name="tildecomb.case" 
d="M-100 769c-41 0 -65 30 -96 30c-18 0 -24 -16 -24 -25h-30c0 14 1 85 60 85c41 0 65 -30 96 -30c18 0 24 16 24 25h30c0 -14 -1 -85 -60 -85z" />
    <glyph glyph-name="uni0304.case" 
d="M-206 774v60h166v-60h-166z" />
    <glyph glyph-name="acute" unicode="&#xb4;" horiz-adv-x="216" 
d="M60 610l54 110h82l-72 -110h-64z" />
    <glyph glyph-name="breve" unicode="&#x2d8;" horiz-adv-x="280" 
d="M140 610c-55 0 -100 45 -100 100h55c0 -25 20 -45 45 -45s45 20 45 45h55c0 -55 -45 -100 -100 -100z" />
    <glyph glyph-name="caron" unicode="&#x2c7;" horiz-adv-x="272" 
d="M40 720h54l42 -64l42 64h54l-54 -110h-84z" />
    <glyph glyph-name="cedilla" unicode="&#xb8;" horiz-adv-x="166" 
d="M-2 -110l42 110h64l-24 -110h-82z" />
    <glyph glyph-name="circumflex" unicode="&#x2c6;" horiz-adv-x="272" 
d="M40 610l54 110h84l54 -110h-54l-42 64l-42 -64h-54z" />
    <glyph glyph-name="dieresis" unicode="&#xa8;" horiz-adv-x="280" 
d="M46 628v80h70v-80h-70zM164 628v80h70v-80h-70z" />
    <glyph glyph-name="dotaccent" unicode="&#x2d9;" horiz-adv-x="156" 
d="M40 628v80h76v-80h-76z" />
    <glyph glyph-name="grave" unicode="`" horiz-adv-x="216" 
d="M60 610l-72 110h82l54 -110h-64z" />
    <glyph glyph-name="hungarumlaut" unicode="&#x2dd;" horiz-adv-x="294" 
d="M40 610l44 110h74l-62 -110h-56zM138 610l44 110h74l-62 -110h-56z" />
    <glyph glyph-name="macron" unicode="&#xaf;" horiz-adv-x="246" 
d="M40 634v60h166v-60h-166z" />
    <glyph glyph-name="ogonek" unicode="&#x2db;" horiz-adv-x="193" 
d="M99 -165c-60 0 -70 48 -50 89l38 76h66l-53 -105h53v-60h-54z" />
    <glyph glyph-name="ring" unicode="&#x2da;" horiz-adv-x="240" 
d="M120 610c-44 0 -80 36 -80 80s36 80 80 80s80 -36 80 -80s-36 -80 -80 -80zM120 650c22 0 40 18 40 40s-18 40 -40 40s-40 -18 -40 -40s18 -40 40 -40z" />
    <glyph glyph-name="tilde" unicode="&#x2dc;" horiz-adv-x="290" 
d="M190 625c-41 0 -65 30 -96 30c-18 0 -24 -16 -24 -25h-30c0 14 1 85 60 85c41 0 65 -30 96 -30c18 0 24 16 24 25h30c0 -14 -1 -85 -60 -85z" />
    <glyph glyph-name="IJacute" horiz-adv-x="430" 
d="M53 774l54 110h82l-72 -110h-64zM274 774l54 110h82l-72 -110h-64zM45 0v700h80v-700h-80zM190 -4v76h96c13 0 20 7 20 20v532h-116v76h196v-614c0 -58 -32 -90 -90 -90h-106z" />
    <glyph glyph-name="ijacute" horiz-adv-x="313" 
d="M46 610l54 110h82l-72 -110h-64zM203 610l54 110h82l-72 -110h-64zM40 0v560h76v-560h-76zM139 -160v70h42c10 0 16 6 16 16v634h76v-630c0 -58 -32 -90 -90 -90h-44z" />
    </font>
</defs>
</svg>
