<?xml version="1.0" encoding="UTF-8"?>
<svg width="586px" height="437px" viewBox="0 0 586 437" version="1.1" xmlns="http://www.w3.org/2000/svg" xmlns:xlink="http://www.w3.org/1999/xlink">
    <title>mac</title>
    <g id="Page-1" stroke="none" stroke-width="1" fill="none" fill-rule="evenodd">
        <g id="Hyster-/-Onboarding-01-/-Test" transform="translate(-665.000000, -160.000000)">
            <g id="mac" transform="translate(665.000000, 160.000000)">
                <path d="M419.345745,269.832306 C418.418005,270.648366 417.467302,271.442369 416.493635,272.214317 C416.331051,272.346651 416.162955,272.490013 415.997616,272.608562 C412.532446,275.298088 408.894494,277.75707 405.107239,279.969637 C400.76156,282.53912 396.22574,284.87702 391.629296,287.082585 C384.720219,290.427046 377.643483,293.413113 370.427231,296.02891 L370.102063,296.147459 C366.927541,297.279649 363.717194,298.324536 360.471024,299.282119 L360.413155,299.298661 C358.148001,299.96033 355.867231,300.571456 353.570846,301.132037 L353.256701,301.209232 C349.876422,302.025291 346.462157,302.719125 343.013905,303.290734 L342.220274,303.417554 C339.699762,303.814556 337.161797,304.138039 334.60638,304.388003 C320.243869,305.766482 305.707751,304.647157 291.433422,302.711773 C262.606441,298.799652 234.162496,291.466147 208.212426,279.969637 C198.324733,275.610152 188.75554,270.560749 179.575586,264.858756 C178.274913,264.048211 176.982508,263.221124 175.698369,262.377495 C175.497206,262.242404 175.293287,262.101799 175.092124,261.972222 C162.432612,253.505608 150.99937,243.19459 145.680942,230.181753 C139.748002,215.655348 143.545304,197.24439 158.24125,188.645442 C163.317179,185.695498 169.172961,184.088192 175.097635,182.762096 L175.703881,182.627005 C176.706942,182.406449 177.710003,182.194163 178.710308,181.981877 C182.207243,181.240256 185.723468,180.504148 189.206625,179.679818 L189.206625,179.679818 C195.679675,178.155221 202.039743,176.33563 207.967172,173.664138 C208.404404,173.469314 208.839799,173.268056 209.273356,173.060365 C213.911136,170.854799 218.956753,167.645702 222.776101,163.791476 C226.066361,160.463829 228.433475,156.648201 228.824779,152.55412 L228.824779,152.55412 C228.937634,151.391048 228.885682,150.217857 228.670462,149.069327 C228.262624,146.891331 227.868564,144.76296 227.568197,142.684215 C227.017065,138.780364 226.840702,135.047444 227.592998,131.446859 L227.592998,131.446859 C228.359072,127.777349 230.092383,124.245687 233.404689,120.821547 C233.90622,120.303239 234.444492,119.787688 235.019507,119.274894 C237.694166,116.926982 240.719782,115.012525 243.986432,113.601077 C244.392433,113.41728 244.800271,113.24543 245.209946,113.085526 C254.303631,109.402232 265.235342,108.633041 275.447826,109.140321 C284.989497,109.63044 294.470604,110.948623 303.784299,113.080012 C304.522817,113.24543 305.261334,113.419118 305.988829,113.595563 C313.914833,115.515415 321.713734,117.9269 329.34031,120.816033 C351.763132,129.252321 372.747499,141.407744 392.152871,154.602539 L393.078774,155.233882 C393.53254,155.544499 393.986305,155.856954 394.440071,156.171247 C395.369648,156.810861 396.293713,157.454151 397.212267,158.101117 C397.895671,158.577152 398.577238,159.056862 399.256968,159.540249 L399.256968,159.540249 L400.720225,160.579621 L401.632349,161.235777 C406.592541,164.819821 411.472818,168.533442 415.99486,172.517244 L416.490879,172.958358 C422.002203,177.865741 426.992707,183.17564 430.988417,189.103097 C447.938495,214.257571 442.912167,249.108262 419.345745,269.832306 Z" id="Path" fill="#F2F2F2" fill-rule="nonzero"></path>
                <circle id="Oval" fill="#FFE34B" cx="292.5" cy="218.5" r="218.5"></circle>
                <g id="undraw_online_test_gba7" transform="translate(0.000000, 79.000000)" fill-rule="nonzero">
                    <path d="M493.797076,3.43243312 L327.1848,3.43243312 L327.1848,0 L251.636324,0 L251.636324,3.43243312 L84.3372272,3.43243312 C81.3482196,3.43243312 78.481634,4.61926258 76.368087,6.73183237 C74.25454,8.84440217 73.0671642,11.7096615 73.0671642,14.6972855 L73.0671642,242.735109 C73.0671642,248.956522 78.1129331,254 84.3372272,254 L493.797076,254 C496.786092,254 499.652685,252.813164 501.766237,250.700587 C503.879788,248.58801 505.067164,245.722742 505.067164,242.735109 L505.067164,14.6972855 C505.067164,11.7096565 503.879787,8.84439235 501.766234,6.73182145 C499.652681,4.61925055 496.786088,3.43242464 493.797076,3.43243312 Z" id="Path" fill="#3F3D56"></path>
                    <rect id="Rectangle" fill="#FFE34B" x="88.0671642" y="24" width="401" height="226"></rect>
                    <circle id="Oval" fill="#FFFFFF" cx="288.567164" cy="12.5" r="4.5"></circle>
                    <path d="M467.067164,52 L448.067164,52 L448.067164,33 L467.067164,33 L467.067164,52 Z M448.893281,51.1739394 L466.241079,51.1739394 L466.241079,33.8260861 L448.893281,33.8260861 L448.893281,51.1739394 Z" id="Shape" fill="#3F3D56"></path>
                    <path d="M516.620354,246.352529 L477.400499,246.352529 L477.400499,243.554734 C477.400502,243.407607 477.341473,243.266506 477.236398,243.162472 C477.131323,243.058438 476.98881,243 476.840212,243 L463.393402,243 C463.244805,243 463.102293,243.058441 462.99722,243.162474 C462.892146,243.266508 462.833118,243.407608 462.833121,243.554734 L462.833121,246.352529 L454.428864,246.352529 L454.428864,243.554734 C454.428867,243.407608 454.369839,243.266508 454.264765,243.162474 C454.159692,243.058441 454.01718,243 453.868583,243 L440.421773,243 C440.273175,243 440.130662,243.058438 440.025587,243.162472 C439.920512,243.266506 439.861483,243.407607 439.861486,243.554734 L439.861486,246.352529 L431.457235,246.352529 L431.457235,243.554734 C431.457239,243.407607 431.39821,243.266506 431.293134,243.162472 C431.188059,243.058438 431.045546,243 430.896948,243 L417.450106,243 C417.30151,243 417.158998,243.058441 417.053924,243.162474 C416.94885,243.266508 416.889822,243.407608 416.889825,243.554734 L416.889825,246.352529 L408.485601,246.352529 L408.485601,243.554734 C408.485604,243.407608 408.426576,243.266508 408.321502,243.162474 C408.216428,243.058441 408.073916,243 407.92532,243 L394.47851,243 C394.329913,243 394.187401,243.058441 394.082328,243.162474 C393.977254,243.266508 393.918226,243.407608 393.918229,243.554734 L393.918229,246.352529 L385.513972,246.352529 L385.513972,243.554734 C385.513975,243.407607 385.454946,243.266506 385.349871,243.162472 C385.244796,243.058438 385.102283,243 384.953685,243 L371.506881,243 C371.358283,243 371.21577,243.058438 371.110695,243.162472 C371.00562,243.266506 370.946591,243.407607 370.946594,243.554734 L370.946594,246.352529 L362.542331,246.352529 L362.542331,243.554734 C362.542336,243.407608 362.483308,243.266506 362.378234,243.162472 C362.27316,243.058438 362.130647,243 361.98205,243 L348.535246,243 C348.38665,243 348.244138,243.058441 348.139064,243.162474 C348.03399,243.266508 347.974962,243.407608 347.974965,243.554734 L347.974965,246.352529 L339.570708,246.352529 L339.570708,243.554734 C339.570712,243.407608 339.511684,243.266508 339.40661,243.162474 C339.301536,243.058441 339.159024,243 339.010428,243 L233.677104,243 C233.528507,243 233.385995,243.058441 233.280921,243.162474 C233.175848,243.266508 233.116819,243.407608 233.116823,243.554734 L233.116823,246.352529 L224.712553,246.352529 L224.712553,243.554734 C224.712556,243.407608 224.653528,243.266508 224.548454,243.162474 C224.44338,243.058441 224.300869,243 224.152272,243 L210.705462,243 C210.556864,243 210.414351,243.058438 210.309276,243.162472 C210.204201,243.266506 210.145172,243.407607 210.145175,243.554734 L210.145175,246.352529 L201.740924,246.352529 L201.740924,243.554734 C201.740928,243.407607 201.681899,243.266506 201.576823,243.162472 C201.471748,243.058438 201.329235,243 201.180637,243 L187.733827,243 C187.585231,243 187.442719,243.058441 187.337645,243.162474 C187.232571,243.266508 187.173543,243.407608 187.173546,243.554734 L187.173546,246.352529 L178.769289,246.352529 L178.769289,243.554734 C178.769293,243.407608 178.710265,243.266508 178.605191,243.162474 C178.500117,243.058441 178.357605,243 178.209009,243 L164.762199,243 C164.613601,243 164.471088,243.058438 164.366012,243.162472 C164.260937,243.266506 164.201908,243.407607 164.201912,243.554734 L164.201912,246.352529 L155.797661,246.352529 L155.797661,243.554734 C155.797664,243.407607 155.738635,243.266506 155.63356,243.162472 C155.528485,243.058438 155.385972,243 155.237374,243 L141.790564,243 C141.641967,243 141.499455,243.058441 141.394382,243.162474 C141.289308,243.266508 141.23028,243.407608 141.230283,243.554734 L141.230283,246.352529 L132.826026,246.352529 L132.826026,243.554734 C132.826029,243.407608 132.767001,243.266508 132.661927,243.162474 C132.556854,243.058441 132.414342,243 132.265745,243 L118.818935,243 C118.670339,243 118.527827,243.058441 118.422753,243.162474 C118.317679,243.266508 118.258651,243.407608 118.258654,243.554734 L118.258654,246.352529 L109.854397,246.352529 L109.854397,243.554734 C109.854401,243.407607 109.795372,243.266506 109.690296,243.162472 C109.585221,243.058438 109.442708,243 109.29411,243 L95.8473067,243 C95.6987089,243 95.5561956,243.058438 95.4511205,243.162472 C95.3460453,243.266506 95.2870161,243.407607 95.2870195,243.554734 L95.2870195,246.352529 L69.5139741,246.352529 C62.0875085,246.352529 56.0671642,252.313266 56.0671642,259.666209 L56.0671642,265.686345 C56.0671642,273.039279 62.0875186,279 69.5139741,279 L516.620354,279 C524.046808,279 530.067164,273.039277 530.067164,265.686345 L530.067164,259.666209 C530.067164,252.313267 524.046818,246.352533 516.620354,246.352529 Z" id="Path" fill="#3F3D56"></path>
                    <rect id="Rectangle" fill="#3F3D56" x="0.0671641791" y="265" width="585" height="2"></rect>
                    <path d="M465.067164,150 L335.067164,150 L335.067164,76 L465.067164,76 L465.067164,150 Z M336.354293,148.713043 L463.780035,148.713043 L463.780035,77.2869565 L336.354293,77.2869565 L336.354293,148.713043 Z" id="Shape" fill="#3F3D56"></path>
                    <path d="M228.067164,164 L113.067164,164 L113.067164,92 L228.067164,92 L228.067164,164 Z M114.344942,162.714286 L226.789386,162.714286 L226.789386,93.2857143 L114.344942,93.2857143 L114.344942,162.714286 Z" id="Shape" fill="#3F3D56"></path>
                    <path d="M166.002888,136.680836 L165.892979,135.223716 C165.564179,132.198123 166.551199,128.891933 169.293021,125.530378 C171.76087,122.560143 173.131779,120.375105 173.131779,117.85346 C173.131779,114.995855 171.37695,113.090782 167.922088,113.034786 C165.946163,113.026576 164.014489,113.63239 162.38331,114.771865 L161.067164,111.241672 C162.877106,109.896544 166.002856,109 168.909101,109 C175.21572,109 178.067164,112.978758 178.067164,117.236856 C178.067164,121.047633 175.983223,123.793254 173.350977,126.986827 C170.938241,129.900429 170.060824,132.366077 170.225221,135.223683 L170.280022,136.680836 L166.002888,136.680836 Z M164.796364,144.525708 C164.736708,143.601473 165.058468,142.69393 165.683608,142.023181 C166.308748,141.352433 167.180165,140.979749 168.086517,140.995516 C170.006055,140.995516 171.322181,142.451997 171.322181,144.525708 C171.371553,145.749618 170.76067,146.902779 169.730793,147.529762 C168.700916,148.156746 167.417629,148.156746 166.387752,147.529762 C165.357875,146.902779 164.746992,145.749618 164.796364,144.525708 L164.796364,144.525708 Z" id="Shape" fill="#000000"></path>
                    <path d="M397.002888,120.680836 L396.892979,119.223716 C396.564179,116.198123 397.551199,112.891933 400.293021,109.530378 C402.76087,106.560143 404.131779,104.375105 404.131779,101.85346 C404.131779,98.9958545 402.37695,97.0907819 398.922088,97.0347862 C396.946163,97.0265758 395.014489,97.63239 393.38331,98.7718652 L392.067164,95.2416724 C393.877106,93.8965439 397.002856,93 399.909101,93 C406.21572,93 409.067164,96.9787579 409.067164,101.236856 C409.067164,105.047633 406.983223,107.793254 404.350977,110.986827 C401.938241,113.900429 401.060824,116.366077 401.225221,119.223683 L401.280022,120.680836 L397.002888,120.680836 Z M395.796364,128.525708 C395.736708,127.601473 396.058468,126.69393 396.683608,126.023181 C397.308748,125.352433 398.180165,124.979749 399.086517,124.995516 C401.006055,124.995516 402.322181,126.451997 402.322181,128.525708 C402.371553,129.749618 401.76067,130.902779 400.730793,131.529762 C399.700916,132.156746 398.417629,132.156746 397.387752,131.529762 C396.357875,130.902779 395.746992,129.749618 395.796364,128.525708 L395.796364,128.525708 Z" id="Shape" fill="#000000"></path>
                    <rect id="Rectangle" fill="#D0CDE1" x="81.0671642" y="9" width="91" height="86"></rect>
                    <rect id="Rectangle" fill="#FFFFFF" x="91.0671642" y="18" width="70" height="54"></rect>
                    <rect id="Rectangle" fill="#F2F2F2" x="91.0671642" y="78" width="39" height="2"></rect>
                    <rect id="Rectangle" fill="#F2F2F2" x="91.0671642" y="85" width="39" height="2"></rect>
                    <circle id="Oval" fill="#3F3D56" cx="104.067164" cy="46" r="8"></circle>
                    <circle id="Oval" fill="#FFE34B" cx="126.067164" cy="46" r="8"></circle>
                    <circle id="Oval" fill="#E6E6E6" cx="149.067164" cy="46" r="8"></circle>
                    <circle id="Oval" fill="#3F3D56" cx="126.067164" cy="13" r="4"></circle>
                    <rect id="Rectangle" fill="#D0CDE1" x="124.067164" y="176" width="91" height="86"></rect>
                    <rect id="Rectangle" fill="#FFFFFF" x="134.067164" y="185" width="70" height="54"></rect>
                    <rect id="Rectangle" fill="#FFE34B" x="150.067164" y="194" width="25" height="25"></rect>
                    <path d="M159.067164,201 L159.067164,231 L189.067164,231 L189.067164,201 L159.067164,201 Z M187.765905,229.698708 L160.368417,229.698708 L160.368417,202.301292 L187.765905,202.301292 L187.765905,229.698708 Z" id="Shape" fill="#3F3D56"></path>
                    <rect id="Rectangle" fill="#F2F2F2" x="134.067164" y="245" width="39" height="2"></rect>
                    <circle id="Oval" fill="#3F3D56" cx="169.067164" cy="181" r="4"></circle>
                    <rect id="Rectangle" fill="#D0CDE1" x="361.067164" y="150" width="91" height="86"></rect>
                    <rect id="Rectangle" fill="#FFFFFF" x="371.067164" y="160" width="70" height="54"></rect>
                    <rect id="Rectangle" fill="#3F3D56" x="398.067164" y="202" width="15" height="4"></rect>
                    <rect id="Rectangle" fill="#3F3D56" x="380.067164" y="167" width="51" height="2"></rect>
                    <rect id="Rectangle" fill="#3F3D56" x="380.067164" y="173" width="51" height="2"></rect>
                    <rect id="Rectangle" fill="#3F3D56" x="380.067164" y="179" width="51" height="2"></rect>
                    <rect id="Rectangle" fill="#3F3D56" x="380.067164" y="186" width="51" height="2"></rect>
                    <rect id="Rectangle" fill="#3F3D56" x="380.067164" y="191" width="51" height="2"></rect>
                    <rect id="Rectangle" fill="#F2F2F2" x="370.067164" y="219" width="39" height="2"></rect>
                    <rect id="Rectangle" fill="#F2F2F2" x="370.067164" y="224" width="54" height="2"></rect>
                    <circle id="Oval" fill="#3F3D56" cx="406.067164" cy="155" r="4"></circle>
                </g>
                <g id="person" transform="translate(235.000000, 188.000000)" fill-rule="nonzero">
                    <path d="M31.4724867,107.484723 L26.5599325,108.030007 C26.5599325,108.030007 24.376577,117.845116 26.5599325,130.931928 C28.7432879,144.018739 31.4724867,157.105551 31.4724867,157.105551 C31.4724867,157.105551 33.6558422,199.637725 34.74752,200.183013 C35.8391977,200.728302 45.6642974,204 46.2101496,200.728297 C46.7560019,197.456594 46.7559885,122.752643 46.7559885,122.752643 L54.3977327,158.741407 C54.3977327,158.741407 55.4894104,204 57.6727659,204 C59.8561214,204 66.9520356,203.454716 66.9520356,199.637729 C66.9520356,195.820743 68.5895522,145.654586 68.5895522,145.654586 C68.5895522,145.654586 68.0437134,108.575255 65.8603534,107.484687 C63.6769935,106.39412 31.4724867,107.484723 31.4724867,107.484723 Z" id="Path" fill="#2F2E41"></path>
                    <path d="M35.1424352,199.237624 C35.1424352,199.237624 30.1937921,198.70297 29.0940901,199.237624 C27.9943882,199.772277 26.3448464,203.514851 29.0940901,205.653465 C31.8433338,207.792079 38.9913674,211 41.1907623,211 C42.7159678,210.934219 44.2119473,210.57056 45.5895522,209.930693 L44.4898548,200.84158 L35.1424352,199.237624 Z" id="Path" fill="#2F2E41"></path>
                    <path d="M57.5895522,201.912967 L58.1299774,209.517192 C58.1299774,209.517192 65.1555087,210.60351 65.6959294,209.517192 C66.2363502,208.430874 71.6406104,205.715075 72.1810312,205.171921 C72.7214519,204.628766 73.2618815,198.654014 70.0193306,198.11085 C66.7767797,197.567687 65.6959294,199.197168 65.6959294,199.197168 L57.5895522,201.912967 Z" id="Path" fill="#2F2E41"></path>
                    <path d="M11.4928126,62 C11.4928126,62 -1.94484381,74.6412304 -0.265145904,81.2366547 C1.414552,87.832079 14.8522313,107.068702 14.8522313,107.068702 C14.8522313,107.068702 27.7299945,113.664122 29.4096924,107.068702 C31.0893903,100.473282 20.4512548,102.122133 20.4512548,102.122133 L12.0527104,82.3358734 L21.5710595,69.1450337 L11.4928126,62 Z" id="Path" fill="#FFB8B8"></path>
                    <path d="M71.0177021,43 C71.0177021,43 82.8589098,35.3097062 82.584868,30.0263212 C82.3108261,24.7429363 75.172424,8.0842677 75.172424,8.0842677 C75.172424,8.0842677 69.5880994,-3.64142911 67.3680626,1.15062062 C65.1480258,5.94267034 70.2858873,11.0436702 70.2858873,11.0436702 L73.6020916,27.3851514 L64.5895522,36.0684792 L71.0177021,43 Z" id="Path" fill="#FFB8B8"></path>
                    <circle id="Oval" fill="#FFB8B8" cx="40.5895522" cy="22" r="10"></circle>
                    <path d="M36.5895522,28.4948783 L38.2695522,39 L50.5895522,36.7883973 C50.5895522,36.7883973 50.0295522,26.2832756 50.0295522,25.1774743 C50.0295522,24.071673 36.5895522,28.4948783 36.5895522,28.4948783 Z" id="Path" fill="#FFB8B8"></path>
                    <path d="M35.2279708,38.3949399 C35.2279708,38.3949399 48.7820507,35.1351606 50.4085254,36.2217537 C52.0350001,37.3083468 60.1674534,38.3949399 60.1674534,38.3949399 L69.3842275,52.5206502 L66.6734142,70.4494497 C66.6734142,70.4494497 66.1312471,99.2441935 67.2155769,104.133867 C68.2999066,109.02354 74.263696,109.566832 61.7939502,110.653426 C49.3242045,111.740019 47.155545,110.110129 38.4809335,112.28332 C29.806322,114.45651 22.7582029,111.196727 24.9268536,109.02354 C27.0955042,106.850354 30.8906517,72.0793438 26.553346,68.81956 C22.2160402,65.5597763 20.5895522,48.7175699 20.5895522,48.7175699 C20.5895522,48.7175699 35.2279708,41.1114271 35.2279708,38.3949399 Z" id="Path" fill="#D0CDE1"></path>
                    <path d="M58.5895522,39.8857109 L60.2237051,38.2571406 L63.4920108,35 C63.4920108,35 74.1140132,39.6142825 73.5692956,41.2428572 C73.024578,42.8714319 69.483909,52.3714297 69.483909,52.3714297 L64.581446,54 L58.5895522,39.8857109 Z" id="Path" fill="#D0CDE1"></path>
                    <path d="M27.4273827,50.1162786 L20.9409005,49 C20.9409005,49 16.0760344,54.5813932 14.4544183,56.8139505 C12.8328022,59.0465078 9.58955224,64.627901 9.58955224,64.627901 L20.9409093,73 L29.5895522,63.5116224 L27.4273827,50.1162786 Z" id="Path" fill="#D0CDE1"></path>
                    <path d="M44.6828246,9.52331279 L44.5792162,8.74066677 C43.8920235,8.73688499 43.2087299,8.84064345 42.555856,9.04791496 C42.4890736,8.57596599 42.5317402,8.09557149 42.680766,7.64152178 C42.0173462,7.80635444 41.3852162,8.07193295 40.807984,8.42833885 L40.399536,7 L34.7846898,9.67410004 C32.7691732,10.6340002 30.6441954,11.6888372 29.492026,13.5530442 C28.2075298,15.6313755 28.4310806,18.302386 29.3091333,20.5695936 C30.1871861,22.8368012 31.6462774,24.8431874 32.8158264,26.9839692 C33.2598867,27.9044983 33.7934967,28.7821491 34.4094554,29.6050778 C36.5288419,32.1582396 40.6543051,32.6740492 43.6425201,31.1331141 C44.7795409,30.6036554 45.6859045,29.7023304 46.2010086,28.5888486 C46.4187942,27.8980593 46.5895149,27.1942243 46.7120743,26.4818651 C47.0817035,25.0228839 47.5107878,22.0111726 48.7370673,21.0881957 C49.2766771,20.6820391 50.3465486,22.0284596 50.793719,21.5283147 C51.9428885,20.2430194 51.7017104,18.2608484 50.9880193,16.7085305 C50.3029906,15.1494849 49.5023063,13.6402996 48.5922182,12.1927586 C48.2065808,11.6108106 44.6703942,9.42943534 44.6828246,9.52331279 Z" id="Path" fill="#2F2E41"></path>
                </g>
            </g>
        </g>
    </g>
</svg>